<svg id="Layer_1" data-name="Layer 1" xmlns="http://www.w3.org/2000/svg" viewBox="0 0 559.8 243.39"><defs><style>.cls-1{fill:#fff;}.cls-2{fill:#c7ab00;}.cls-3{fill:none;}</style></defs><title>logo_piekne_wnetrza_RGB</title><path class="cls-1" d="M298.4,128.91a11.05,11.05,0,0,1-5.24-1.37v7.77a4.88,4.88,0,0,1-.81,3.21,3.62,3.62,0,0,1-2.79.91H287l-.31-.36V103.31L287,103h1.88a3.8,3.8,0,0,1,3.76,2.5,9.5,9.5,0,0,1,7-2.9,7.28,7.28,0,0,1,6.45,3.53q2.28,3.53,2.28,9.68a17.6,17.6,0,0,1-.79,5.48,12.83,12.83,0,0,1-2.13,4.14,9.35,9.35,0,0,1-3.15,2.62A8.46,8.46,0,0,1,298.4,128.91Zm-.61-21a5.55,5.55,0,0,0-4.63,2.64v11.79a7.6,7.6,0,0,0,4.07,1.47,3.52,3.52,0,0,0,3.25-2.16,13.49,13.49,0,0,0,1.12-6.07,12.08,12.08,0,0,0-1.07-5.81A3.13,3.13,0,0,0,297.79,107.93Z"/><path class="cls-1" d="M323.9,108.39v20.07a13.19,13.19,0,0,1-1.6.2c-.56,0-1.13.05-1.7.05s-1.15,0-1.71-.05a14.87,14.87,0,0,1-1.65-.2V110.78c0-1.86-.76-2.8-2.28-2.8h-.66a8.51,8.51,0,0,1-.31-2.33,9.3,9.3,0,0,1,.31-2.34l2.15-.18c.66,0,1.23-.07,1.71-.07H319a4.58,4.58,0,0,1,3.58,1.42A5.56,5.56,0,0,1,323.9,108.39Zm-7.67-14.93a6.89,6.89,0,0,1,3.35-.67,8.25,8.25,0,0,1,2.06.21,3.08,3.08,0,0,1,1.14.48,1.56,1.56,0,0,1,.46,1,13.4,13.4,0,0,1,.1,1.58c-.1,1.72-.32,2.67-.64,2.84a13.08,13.08,0,0,1-3.17.51c-1.9-.07-3-.32-3.33-.76a4.81,4.81,0,0,1-.48-2.59A6.51,6.51,0,0,1,316.23,93.46Z"/><path class="cls-1" d="M352.5,118h-14a8.22,8.22,0,0,0,1.29,4.39c.76,1.07,2.09,1.6,4,1.6a16.74,16.74,0,0,0,6.76-1.72,7.2,7.2,0,0,1,1.87,4,13.26,13.26,0,0,1-3.3,1.73q-3.34,2.53-3.35,5.23c0,1.36.74,2,2.24,2a5.47,5.47,0,0,0,2.79-.76,4.24,4.24,0,0,1,1.42,3.1,8.57,8.57,0,0,1-5.33,1.93,7,7,0,0,1-4.52-1.32,4.73,4.73,0,0,1-1.63-3.91c0-1.7.93-3.42,2.8-5.18a5,5,0,0,1-.87,0c-3.59,0-6.3-1.11-8.15-3.33s-2.77-5.51-2.77-9.88a20,20,0,0,1,.71-5.51,12.09,12.09,0,0,1,2.09-4.22,9.5,9.5,0,0,1,3.35-2.72,10.24,10.24,0,0,1,4.52-1,12.19,12.19,0,0,1,4.57.79,9.2,9.2,0,0,1,3.35,2.23,9.39,9.39,0,0,1,2.06,3.43,13,13,0,0,1,.69,4.32,18.4,18.4,0,0,1-.16,2.41C352.8,116.49,352.67,117.25,352.5,118Zm-9.81-10.67q-4,0-4.26,6h8.43v-.61a6.73,6.73,0,0,0-1-3.91A3.54,3.54,0,0,0,342.69,107.32Z"/><path class="cls-1" d="M379.22,118.66l1.47,4c.74,2.13,1.56,3.52,2.44,4.16a5.68,5.68,0,0,1-4.47,2,3.18,3.18,0,0,1-2.29-.73,6.85,6.85,0,0,1-1.42-2.51l-1.73-4.65a5.28,5.28,0,0,0-1.45-2.32,2.9,2.9,0,0,0-1.85-.61c-.71,0-1.47,0-2.29.1v10.37a20.93,20.93,0,0,1-6.45,0v-37l.31-.35h2.59a3.45,3.45,0,0,1,2.77.94,5,5,0,0,1,.78,3.17V112.5l1.27,0a1.43,1.43,0,0,0,1.32-.81l3.51-6a4.29,4.29,0,0,1,4-2.54c.81,0,2,0,3.66.1l.3.4-4.72,8.14a6.72,6.72,0,0,1-2.13,2.5A7,7,0,0,1,379.22,118.66Z"/><path class="cls-1" d="M410.71,111.49v11.07a8.73,8.73,0,0,0,1.07,4.83,5.74,5.74,0,0,1-3.91,1.42,3.72,3.72,0,0,1-3-1,4.89,4.89,0,0,1-.82-3.12V112.86a6.63,6.63,0,0,0-.55-3.2,2.26,2.26,0,0,0-2.09-.91,6.9,6.9,0,0,0-5,2.43v17.28a13.36,13.36,0,0,1-1.61.2c-.56,0-1.12.05-1.7.05s-1.14,0-1.7-.05a13.19,13.19,0,0,1-1.6-.2V103.31l.31-.36h2.53q2.85,0,3.56,3,3.7-3.19,7.37-3.2a6.3,6.3,0,0,1,5.41,2.37A10.34,10.34,0,0,1,410.71,111.49Z"/><path class="cls-1" d="M439.21,118h-14a8.22,8.22,0,0,0,1.29,4.39c.76,1.07,2.09,1.6,4,1.6a16.74,16.74,0,0,0,6.76-1.72,7.27,7.27,0,0,1,1.88,4,16.4,16.4,0,0,1-9.76,2.9c-3.59,0-6.3-1.11-8.15-3.33s-2.77-5.51-2.77-9.88a20,20,0,0,1,.71-5.51,12.09,12.09,0,0,1,2.09-4.22,9.5,9.5,0,0,1,3.35-2.72,10.24,10.24,0,0,1,4.52-1,12.19,12.19,0,0,1,4.57.79,9.2,9.2,0,0,1,3.35,2.23,9.39,9.39,0,0,1,2.06,3.43,13,13,0,0,1,.69,4.32,16.81,16.81,0,0,1-.16,2.41C439.51,116.49,439.38,117.25,439.21,118Zm-9.81-10.67q-4,0-4.26,6h8.43v-.61a6.73,6.73,0,0,0-1-3.91A3.54,3.54,0,0,0,429.4,107.32Z"/><path class="cls-1" d="M288.9,174.09l-5.08-21.8a9.56,9.56,0,0,1,3.58-.81,3.36,3.36,0,0,1,2.34.69,3.66,3.66,0,0,1,1,2.1l1.93,9.35q1,5,1.47,8.18c.07.27.2.41.41.41l3.5-20.12a21.72,21.72,0,0,1,4-.3,20,20,0,0,1,3.86.3l3.51,19.71c0,.27.17.41.41.41.61-3.52,1.13-6.39,1.57-8.59l2.54-11.68a11.67,11.67,0,0,1,3-.31,7,7,0,0,1,3.08.56l.2.41-6.1,24.53a29.69,29.69,0,0,1-4.34.26,7.5,7.5,0,0,1-3.63-.61,3.52,3.52,0,0,1-1.27-2.59l-1.12-6.25c-.68-3.89-1.22-7.25-1.62-10.06h-.31q-.36,2.64-1.68,10l-1.72,9.24a31.91,31.91,0,0,1-4.42.26,7,7,0,0,1-3.63-.66A4.15,4.15,0,0,1,288.9,174.09Z"/><path class="cls-1" d="M347.72,160.17v11.07a8.73,8.73,0,0,0,1.07,4.83,5.79,5.79,0,0,1-3.91,1.42,3.72,3.72,0,0,1-3-1,4.9,4.9,0,0,1-.81-3.12V161.54a6.6,6.6,0,0,0-.56-3.2,2.26,2.26,0,0,0-2.09-.92,6.91,6.91,0,0,0-5,2.44v17.27a13.43,13.43,0,0,1-1.6.21c-.56,0-1.13,0-1.71,0s-1.14,0-1.7,0a13.16,13.16,0,0,1-1.6-.21V152l.31-.36h2.54c1.89,0,3.08,1,3.55,3.05q3.71-3.19,7.37-3.2a6.31,6.31,0,0,1,5.41,2.36A10.38,10.38,0,0,1,347.72,160.17Z"/><path class="cls-1" d="M376.22,166.67h-14a8.22,8.22,0,0,0,1.29,4.39c.77,1.07,2.09,1.6,4,1.6a16.74,16.74,0,0,0,6.76-1.72,7.27,7.27,0,0,1,1.88,4,13.51,13.51,0,0,1-3.31,1.73q-3.35,2.53-3.35,5.23c0,1.35.75,2,2.24,2a5.47,5.47,0,0,0,2.79-.76,4.19,4.19,0,0,1,1.42,3.1,8.57,8.57,0,0,1-5.33,1.93,7,7,0,0,1-4.52-1.32,4.73,4.73,0,0,1-1.63-3.91c0-1.7.93-3.42,2.8-5.19a4.15,4.15,0,0,1-.87.05c-3.59,0-6.3-1.11-8.15-3.32s-2.77-5.52-2.77-9.88a20,20,0,0,1,.71-5.51,12.27,12.27,0,0,1,2.09-4.22,9.39,9.39,0,0,1,3.35-2.72,10.24,10.24,0,0,1,4.52-1,12.4,12.4,0,0,1,4.57.78,9.19,9.19,0,0,1,5.41,5.67,13,13,0,0,1,.69,4.32,18.56,18.56,0,0,1-.15,2.41C376.52,165.17,376.39,165.93,376.22,166.67ZM366.41,156q-4,0-4.26,6h8.43v-.61a6.79,6.79,0,0,0-1-3.92A3.56,3.56,0,0,0,366.41,156Z"/><path class="cls-1" d="M398.52,151.89a9.33,9.33,0,0,1,0,4.77l-6.15-.1v13.36q0,2.34,2.19,2.34h3.15a9.38,9.38,0,0,1,.51,2.89,5.93,5.93,0,0,1-.16,1.78,42.36,42.36,0,0,1-6.09.46q-6.11,0-6.1-6.2V156.61l-3.86,0a11.5,11.5,0,0,1,0-4.77l3.86.05v-3.66a4.77,4.77,0,0,1,.81-3.15,3.61,3.61,0,0,1,2.8-.91H392l.35.3V152Z"/><path class="cls-1" d="M404.41,155a6.37,6.37,0,0,1,.84-1.93,5.69,5.69,0,0,1,1.29-1.53,6.53,6.53,0,0,1,5.64,4.57q1.94-4.51,6.46-4.52a12,12,0,0,1,3,.36,11.56,11.56,0,0,1-1.62,6.19,10.78,10.78,0,0,0-2.34-.35q-2.94,0-4.77,3.15v16.2a19.92,19.92,0,0,1-3.28.26,21.74,21.74,0,0,1-3.38-.26V160.22C406.29,157.81,405.67,156.07,404.41,155Z"/><path class="cls-1" d="M427.22,171.24l7.11-9.6c.51-.68,1.86-2.3,4.06-4.88l-.15-.2a54.31,54.31,0,0,1-6.55.35h-4.57a10.29,10.29,0,0,1-.26-2.31,10.15,10.15,0,0,1,.41-2.66h17.37a13.56,13.56,0,0,1,.87,3.73,3.3,3.3,0,0,1-.71,2.06l-7.17,9.7q-2.24,2.9-3.91,4.73l.15.25a34.46,34.46,0,0,1,4.37-.25h2.09a12.21,12.21,0,0,0,5.08-.82,7.92,7.92,0,0,1,.66,2.8c0,2-1.27,3-3.81,3H427.07a11.1,11.1,0,0,1-.82-3.4A4.32,4.32,0,0,1,427.22,171.24Z"/><path class="cls-1" d="M474.06,174.09a7.15,7.15,0,0,1-.92,1.93,3.2,3.2,0,0,1-6.15-1.38,10.15,10.15,0,0,1-7.21,3.2,8.93,8.93,0,0,1-3.48-.63,7.1,7.1,0,0,1-2.49-1.7,6.93,6.93,0,0,1-1.47-2.44,8.53,8.53,0,0,1-.48-2.85,8.87,8.87,0,0,1,.73-3.73,7.22,7.22,0,0,1,2.09-2.67,9.4,9.4,0,0,1,3.15-1.62,13.28,13.28,0,0,1,3.93-.56c1.83,0,3.25.05,4.27.15v-1.37q0-3.85-3.76-3.86a26.57,26.57,0,0,0-7.72,1.78,8.12,8.12,0,0,1-1.73-4.73A28.28,28.28,0,0,1,464,151.33a9.12,9.12,0,0,1,6.24,2.13c1.63,1.42,2.44,3.58,2.44,6.45v10.42C472.63,172.12,473.11,173.38,474.06,174.09Zm-12.81-1.27a6.7,6.7,0,0,0,4.78-2.24v-4.42l-1.57-.1c-.51,0-1-.05-1.48-.05a5.78,5.78,0,0,0-3.4.84,3.16,3.16,0,0,0-1.17,2.76,3.39,3.39,0,0,0,.76,2.37A2.67,2.67,0,0,0,461.25,172.82Z"/><path class="cls-2" d="M237.18,104.12a2.71,2.71,0,0,0-.79-1.92L187.71,53.53a1.7,1.7,0,0,0-.14-.1A2.57,2.57,0,0,0,187,53a1.79,1.79,0,0,0-.24-.12,2.84,2.84,0,0,0-.92-.18H137.12a2.7,2.7,0,0,0-1.91.8L86.54,102.2a2.78,2.78,0,0,0-.59.88,2.61,2.61,0,0,0-.21,1V188a2.71,2.71,0,0,0,2.71,2.71H210.14a2.69,2.69,0,0,0,2.22-1.17l24.34-35.16a2.31,2.31,0,0,0,.18-.35,2,2,0,0,0,.11-.2,3,3,0,0,0,.18-.92s0,0,0-.07Zm-5.41,46H188.51v-46a2.72,2.72,0,0,0-.8-1.92L165.29,79.78,185.8,59.26l46,46Zm-91.94,0V105.24L161.46,83.6l21.64,21.64v44.85Zm68.89,35.16H188.51v-8.12a2.71,2.71,0,0,0-5.41,0v8.12H164.17v-8.12a2.71,2.71,0,0,0-5.41,0v8.12H139.83v-8.12a2.71,2.71,0,0,0-5.41,0v8.12H115.49v-8.12a2.71,2.71,0,0,0-5.41,0v8.12H91.15V155.5h8.11a2.71,2.71,0,1,0,0-5.41H91.15V131.16h8.11a2.71,2.71,0,1,0,0-5.41H91.15V106.82h8.11a2.71,2.71,0,1,0,0-5.41H95l43.27-43.27h41L159.55,77.87,135.21,102.2a2.59,2.59,0,0,0-.58.88,2.65,2.65,0,0,0-.21,1v48.67a2.7,2.7,0,0,0,2.7,2.71h92.2Z"/><rect class="cls-3" width="559.8" height="243.39"/></svg>