<?xml version="1.0" encoding="UTF-8" standalone="no"?>
<svg
   xmlns:dc="http://purl.org/dc/elements/1.1/"
   xmlns:cc="http://creativecommons.org/ns#"
   xmlns:rdf="http://www.w3.org/1999/02/22-rdf-syntax-ns#"
   xmlns:svg="http://www.w3.org/2000/svg"
   xmlns="http://www.w3.org/2000/svg"
   xmlns:sodipodi="http://sodipodi.sourceforge.net/DTD/sodipodi-0.dtd"
   xmlns:inkscape="http://www.inkscape.org/namespaces/inkscape"
   enable-background="new 0 0 91 91"
   height="91"
   id="Layer_1"
   version="1.1"
   viewBox="0 0 91 91"
   width="91"
   xml:space="preserve"
   sodipodi:docname="project-icon.svg"
   inkscape:version="0.92.3 (2405546, 2018-03-11)"><metadata
     id="metadata579"><rdf:RDF><cc:Work
         rdf:about=""><dc:format>image/svg+xml</dc:format><dc:type
           rdf:resource="http://purl.org/dc/dcmitype/StillImage" /><dc:title></dc:title></cc:Work></rdf:RDF></metadata><defs
     id="defs577"><filter
       inkscape:collect="always"
       style="color-interpolation-filters:sRGB"
       id="filter2363"
       x="-0.70428664"
       width="2.4085733"
       y="-1.7722623"
       height="4.5445247"><feGaussianBlur
         inkscape:collect="always"
         stdDeviation="9.667677"
         id="feGaussianBlur2365" /></filter><filter
       inkscape:collect="always"
       style="color-interpolation-filters:sRGB"
       id="filter2363-1"
       x="-0.70428663"
       width="2.4085734"
       y="-1.7722623"
       height="4.5445247"><feGaussianBlur
         inkscape:collect="always"
         stdDeviation="9.667677"
         id="feGaussianBlur2365-2" /></filter></defs><sodipodi:namedview
     pagecolor="#ffffff"
     bordercolor="#666666"
     borderopacity="1"
     objecttolerance="10"
     gridtolerance="10"
     guidetolerance="10"
     inkscape:pageopacity="0"
     inkscape:pageshadow="2"
     inkscape:window-width="1920"
     inkscape:window-height="1017"
     id="namedview575"
     showgrid="false"
     inkscape:zoom="9.3186813"
     inkscape:cx="33.449566"
     inkscape:cy="45.5"
     inkscape:window-x="1432"
     inkscape:window-y="-8"
     inkscape:window-maximized="1"
     inkscape:current-layer="Layer_1" /><path
     style="fill:#bfb283;fill-opacity:1;stroke:#bfac83;stroke-width:1;stroke-linecap:butt;stroke-linejoin:miter;stroke-miterlimit:4;stroke-dasharray:0, 11;stroke-dashoffset:0;stroke-opacity:1;filter:url(#filter2363-1)"
     d="m 25.96934,35.090802 0.107311,13.091981 32.837265,-0.107311 V 35.412736 Z"
     id="path1723-4"
     inkscape:connector-curvature="0"
     transform="matrix(0.99579017,0,0,1.3090786,-8.6745144,-24.244041)" /><g
     id="g462"><g
       id="g12"><path
         d="m 1176.678,-494.2 v 5.088 c 0.486,-0.568 0.857,-1.315 0.984,-2.31 0.168,-1.324 -0.291,-2.197 -0.984,-2.778 z"
         id="path10"
         inkscape:connector-curvature="0"
         style="fill:none" /></g><g
       id="g30"><g
         id="g18"><path
           d="m 1369.096,-471.334 v 1.064 c 0,0.268 -0.217,0.485 -0.484,0.485 h 3.09 c 0.268,0 0.486,-0.218 0.486,-0.485 v -1.064 c 0,-0.267 -0.219,-0.485 -0.486,-0.485 h -3.09 c 0.267,0 0.484,0.218 0.484,0.485 z"
           id="path14"
           inkscape:connector-curvature="0"
           style="fill:#9a663c" /><path
           d="m 1366.006,-471.334 v 1.064 c 0,0.268 0.218,0.485 0.486,0.485 h 2.119 c 0.268,0 0.484,-0.218 0.484,-0.485 v -1.064 c 0,-0.267 -0.217,-0.485 -0.484,-0.485 h -2.119 c -0.268,0 -0.486,0.218 -0.486,0.485 z"
           id="path16"
           inkscape:connector-curvature="0"
           style="fill:#bc7d48" /></g><path
         d="m 1369.256,-462.074 c 15.322,0 27.789,-12.465 27.789,-27.787 0,-15.323 -12.467,-27.788 -27.789,-27.788 -15.322,0 -27.787,12.465 -27.787,27.788 0,15.322 12.465,27.787 27.787,27.787 z m 0,-53.388 c 14.116,0 25.6,11.484 25.6,25.601 0,14.117 -11.483,25.601 -25.6,25.601 -14.117,0 -25.601,-11.484 -25.601,-25.601 0,-14.117 11.484,-25.601 25.601,-25.601 z"
         id="path20"
         inkscape:connector-curvature="0"
         style="fill:#594a42" /><path
         d="m 1369.256,-466.684 c 12.78,0 23.178,-10.397 23.178,-23.178 0,-12.781 -10.397,-23.178 -23.178,-23.178 -12.779,0 -23.178,10.397 -23.178,23.178 0,12.781 10.399,23.178 23.178,23.178 z m 0,-44.897 c 11.977,0 21.721,9.743 21.721,21.72 0,11.977 -9.744,21.72 -21.721,21.72 -11.976,0 -21.721,-9.743 -21.721,-21.72 0,-11.977 9.745,-21.72 21.721,-21.72 z"
         id="path22"
         inkscape:connector-curvature="0"
         style="fill:#594a42" /><path
         d="m 1369.256,-473.199 c 9.188,0 16.662,-7.475 16.662,-16.662 0,-9.188 -7.475,-16.663 -16.662,-16.663 -9.187,0 -16.662,7.475 -16.662,16.663 0,9.187 7.474,16.662 16.662,16.662 z m 0,-31.867 c 8.383,0 15.203,6.82 15.203,15.205 0,0.659 -0.056,1.305 -0.138,1.942 h -30.131 c -0.082,-0.638 -0.139,-1.283 -0.139,-1.942 10e-4,-8.385 6.821,-15.205 15.205,-15.205 z m 14.807,18.605 c -0.289,1.259 -0.732,2.459 -1.313,3.577 h -26.987 c -0.58,-1.118 -1.023,-2.318 -1.313,-3.577 z m -2.168,5.035 c -2.729,4.077 -7.374,6.769 -12.639,6.769 -5.264,0 -9.91,-2.691 -12.64,-6.769 z"
         id="path24"
         inkscape:connector-curvature="0"
         style="fill:#594a42" /><circle
         cx="1369.256"
         cy="-509.755"
         r="0.60900003"
         id="circle26"
         style="fill:#594a42" /><path
         d="m 1371.701,-472.547 h -5.209 c -0.67,0 -1.215,0.544 -1.215,1.213 v 1.064 c 0,0.67 0.545,1.214 1.215,1.214 h 5.209 c 0.671,0 1.215,-0.544 1.215,-1.214 v -1.064 c 0,-0.669 -0.544,-1.213 -1.215,-1.213 z"
         id="path28"
         inkscape:connector-curvature="0"
         style="fill:#594a42" /></g><g
       id="g40"><g
         id="g38"><path
           d="m 1494.596,-523.797 h -4.361 l -7.227,-6.461 c -0.188,-0.166 -0.426,-0.258 -0.676,-0.258 h -10.92 l 0.932,-4.56 c 0.041,-0.29 -0.045,-0.584 -0.236,-0.807 -0.193,-0.221 -0.473,-0.349 -0.766,-0.349 h -7.697 c -0.293,0 -0.57,0.128 -0.764,0.349 -0.193,0.223 -0.279,0.517 -0.236,0.807 l 0.932,4.56 h -10.922 c -0.25,0 -0.488,0.092 -0.674,0.258 l -7.133,6.375 h -9.867 c -0.334,0 -0.645,0.163 -0.834,0.437 -0.189,0.275 -0.23,0.625 -0.111,0.936 l 13.449,23.046 c 0.031,0.078 0.074,0.145 0.121,0.211 l 2.699,18.15 c 0.07,0.498 0.498,0.869 1,0.869 h 1.172 v 4.047 h -1.172 c -0.473,0 -0.883,0.327 -0.986,0.788 l -6.561,24.526 c -0.277,1.229 0.014,2.5 0.801,3.482 0.785,0.985 1.959,1.551 3.221,1.551 h 39.428 c 1.26,0 2.436,-0.565 3.223,-1.551 0.785,-0.982 1.078,-2.253 0.799,-3.482 l -6.561,-24.526 c -0.105,-0.461 -0.514,-0.788 -0.986,-0.788 h -1.172 v -4.047 h 1.172 c 0.504,0 0.93,-0.371 1.002,-0.869 l 5.254,-35.95 h 4.658 c 2.244,0 4.068,1.825 4.068,4.068 v 13.259 c 0,2.244 -1.824,4.067 -4.068,4.067 h -3.086 c -1.861,0 -3.371,1.51 -3.371,3.372 0,1.863 1.51,3.374 3.371,3.374 h 3.086 c 5.963,0 10.813,-4.853 10.813,-10.813 v -13.259 c 0,-5.962 -4.851,-10.812 -10.814,-10.812 z m -12.651,-4.696 5.156,4.61 h -6.739 c -10e-4,0 -10e-4,0 -10e-4,-10e-4 l -2.533,-4.609 z m -11.771,-5.714 -0.758,3.354 h -3.844 l -0.76,-3.354 z m 6.183,5.714 c 0.01,0.094 0.033,0.188 0.082,0.275 l 2.383,4.335 h -22.567 l 1.858,-4.61 z m 2.411,6.634 -3.679,39.604 h -15.164 l -3.741,-39.604 z m -25.729,-6.634 h 3.621 l -1.783,4.422 c -0.025,0.062 -0.031,0.125 -0.037,0.188 h -3.262 -3.693 z m -5.076,24.61 v 0.003 l -11.512,-17.979 h 7.91 0.877 0.145 1.021 4.016 l -1.957,14.331 z m 1.545,3.644 2.953,-21.62 h 2.365 l 3.743,39.604 h -6.388 z m -1.729,52.376 c -0.643,0 -1.24,-0.287 -1.641,-0.788 -0.401,-0.501 -0.549,-1.148 -0.408,-1.773 l 6.383,-23.738 h 6.52 l -3.844,26.3 h -7.01 z m 8.373,0 3.844,-26.3 h 15.043 l 3.848,26.3 z m 26.721,-26.3 6.383,23.738 c 0.143,0.625 -0.01,1.272 -0.408,1.773 -0.4,0.501 -0.998,0.788 -1.641,0.788 h -6.957 l -3.848,-26.3 h 6.471 z m -1.713,-2.024 h -27.334 v -4.047 h 27.334 z m 7.408,-45.562 -0.361,2.523 -0.148,1.027 -0.145,1.01 -5.109,34.933 h -6.36 l 3.679,-39.604 h 5.646 1.18 1.635 z m 14.817,22.023 c 0,4.846 -3.943,8.789 -8.789,8.789 h -3.086 c -0.742,0 -1.348,-0.604 -1.348,-1.35 0,-0.743 0.605,-1.349 1.348,-1.349 h 3.086 c 3.359,0 6.092,-2.731 6.092,-6.091 v -13.259 c 0,-3.358 -2.732,-6.091 -6.092,-6.091 h -4.367 l 0.387,-2.698 h 3.98 c 4.846,0 8.789,3.942 8.789,8.789 z"
           id="path32"
           inkscape:connector-curvature="0"
           style="fill:#594a42" /><path
           d="m 1467.494,-456.17 c 2.695,0 4.889,-2.193 4.889,-4.891 0,-2.696 -2.193,-4.89 -4.889,-4.89 -2.697,0 -4.891,2.193 -4.891,4.89 10e-4,2.698 2.194,4.891 4.891,4.891 z m 0,-8.432 c 1.951,0 3.539,1.589 3.539,3.541 0,1.953 -1.588,3.541 -3.539,3.541 -1.953,0 -3.541,-1.588 -3.541,-3.541 0,-1.952 1.588,-3.541 3.541,-3.541 z"
           id="path34"
           inkscape:connector-curvature="0"
           style="fill:#594a42" /><path
           d="m 1467.494,-458.588 c 1.363,0 2.473,-1.108 2.473,-2.473 0,-1.365 -1.109,-2.474 -2.473,-2.474 -1.365,0 -2.475,1.109 -2.475,2.474 0,1.365 1.11,2.473 2.475,2.473 z m 0,-4.271 c 0.99,0 1.799,0.806 1.799,1.799 0,0.992 -0.809,1.798 -1.799,1.798 -0.992,0 -1.799,-0.806 -1.799,-1.798 0,-0.994 0.807,-1.799 1.799,-1.799 z"
           id="path36"
           inkscape:connector-curvature="0"
           style="fill:#594a42" /></g></g><path
       d="m 1175.143,-498.91 v 0 c 3.497,0 6.342,2.778 6.342,6.194 v 2.412 c 0,3.415 -2.845,6.195 -6.342,6.195 v 0 c -0.551,0 -0.995,0.435 -0.995,0.971 0,0.538 0.444,0.973 0.995,0.973 4.594,0 8.332,-3.65 8.332,-8.139 v -2.412 c 0,-4.487 -3.738,-8.139 -8.332,-8.139 -0.551,0 -0.995,0.436 -0.995,0.972 -10e-4,0.537 0.444,0.973 0.995,0.973 z"
       id="path42"
       inkscape:connector-curvature="0"
       style="fill:#594a42" /><path
       d="m 1182.381,-475.531 h -13.895 c 3.178,-2.876 5.125,-6.907 5.371,-11.186 0.443,-0.014 0.873,-0.097 1.285,-0.222 2.003,-0.608 3.515,-2.444 3.515,-4.571 0,-2.127 -1.512,-3.963 -3.515,-4.572 -0.404,-0.122 -0.823,-0.201 -1.258,-0.218 v -10.452 c 0,-0.604 -0.49,-1.094 -1.094,-1.094 h -40.52 c -0.604,0 -1.094,0.49 -1.094,1.094 v 19.111 c 0,4.618 1.993,9.027 5.399,12.109 h -13.896 c -0.604,0 -1.094,0.489 -1.094,1.094 0,6.565 5.484,6.565 9.891,6.565 l 40.424,-0.003 1.682,0.003 c 4.406,0 9.891,0 9.891,-6.565 0,-0.604 -0.489,-1.093 -1.092,-1.093 z m -8.496,-18.819 c 0.451,0.025 0.878,0.148 1.258,0.357 0.896,0.495 1.525,1.428 1.525,2.483 0,1.055 -0.629,1.988 -1.525,2.482 -0.38,0.209 -0.807,0.332 -1.258,0.357 z m -40.52,-11.308 h 38.332 v 2.436 h -38.332 z m 5.862,29.47 c -3.67,-2.664 -5.861,-6.945 -5.861,-11.453 v -14.124 h 38.332 v 14.124 c 0,4.508 -2.191,8.789 -5.86,11.453 -0.228,0.165 -0.368,0.401 -0.423,0.656 h -25.766 c -0.054,-0.254 -0.196,-0.49 -0.422,-0.656 z m 34.357,6.129 -40.424,-0.003 -1.682,0.003 c -4.816,0 -7.199,-0.335 -7.631,-3.285 h 57.367 c -0.43,2.95 -2.814,3.285 -7.63,3.285 z"
       id="path44"
       inkscape:connector-curvature="0"
       style="fill:#594a42" /><path
       d="m 1384.16,-607.217 -4.038,-0.09 c 0.075,0.06 0.156,0.107 0.243,0.145 l 4.348,0.096 c -0.193,0 -0.385,-0.053 -0.553,-0.151 z"
       id="path46"
       inkscape:connector-curvature="0"
       style="fill:#e5dfda" /><path
       d="m 1389.02,-579.861 c 0.402,0 0.729,-0.326 0.729,-0.729 v -15.464 c 0,-0.403 -0.326,-0.729 -0.729,-0.729 h -43.252 c -0.404,0 -0.729,0.327 -0.729,0.729 v 15.464 c 0,0.403 0.325,0.729 0.729,0.729 z m -42.524,-15.465 h 41.793 v 14.006 h -41.793 z"
       id="path48"
       inkscape:connector-curvature="0"
       style="fill:#594637" /><path
       d="m 1367.393,-592.592 c -2.545,0 -4.617,2.072 -4.617,4.617 0,2.546 2.072,4.617 4.617,4.617 2.546,0 4.617,-2.07 4.617,-4.617 0,-2.546 -2.072,-4.617 -4.617,-4.617 z m 0,7.776 c -1.742,0 -3.16,-1.416 -3.16,-3.159 0,-1.742 1.418,-3.159 3.16,-3.159 1.742,0 3.158,1.417 3.158,3.159 0,1.743 -1.416,3.159 -3.158,3.159 z"
       id="path50"
       inkscape:connector-curvature="0"
       style="fill:#594637" /><path
       d="m 1399.072,-648.447 c -2.211,0 -4.01,1.799 -4.01,4.01 v 11.976 c 0,1.522 0.854,2.85 2.105,3.528 0.254,0.138 0.525,0.246 0.811,0.326 v 1.127 h -5.328 -8.019 c -2.265,0 -4.392,0.881 -5.992,2.482 l -2.603,2.603 c -0.143,0.142 -0.291,0.276 -0.443,0.403 -1.125,0.931 -2.523,1.438 -4.002,1.438 h -0.469 -1.553 v -1 c 0,-0.989 -0.801,-1.791 -1.79,-1.791 -0.989,0 -1.79,0.802 -1.79,1.791 v 4.592 c -5.318,0.464 -10.113,3.54 -12.736,8.271 -0.131,0.235 -0.16,0.496 -0.111,0.74 h -16.621 c -1.557,0 -2.824,1.267 -2.824,2.823 v 2.223 c 0,1.557 1.268,2.823 2.824,2.823 h 1.709 v 22.253 c 0,0.604 0.49,1.093 1.095,1.093 0.603,0 1.093,-0.489 1.093,-1.093 v -22.253 h 53.949 v 24.589 h -57.846 c -1.557,0 -2.824,1.267 -2.824,2.824 v 2.222 c 0,1.557 1.268,2.824 2.824,2.824 h 61.742 c 1.559,0 2.824,-1.267 2.824,-2.824 v -2.222 c 0,-1.557 -1.266,-2.824 -2.824,-2.824 h -1.709 v -24.589 h 1.709 c 1.559,0 2.824,-1.267 2.824,-2.823 v -2.223 c 0,-1.557 -1.266,-2.823 -2.824,-2.823 h -16.621 c 0.049,-0.244 0.019,-0.505 -0.113,-0.74 -2.493,-4.5 -6.951,-7.509 -11.959,-8.192 v -1.485 h 2.021 c 2.264,0 4.391,-0.881 5.992,-2.481 l 2.602,-2.603 c 0.01,-0.01 0.021,-0.019 0.031,-0.029 1.184,-1.168 2.75,-1.813 4.415,-1.813 h 1.221 13.22 c 0.604,0 1.092,-0.489 1.092,-1.093 v -2.221 c 1.682,-0.478 2.916,-2.022 2.916,-3.854 v -11.976 c 0,-2.21 -1.799,-4.009 -4.008,-4.009 z m -0.172,75.78 v 2.222 c 0,0.352 -0.285,0.637 -0.637,0.637 h -61.742 c -0.352,0 -0.637,-0.285 -0.637,-0.637 v -2.222 c 0,-0.352 0.285,-0.637 0.637,-0.637 h 61.742 c 0.352,0 0.637,0.285 0.637,0.637 z m 0,-32.46 v 2.223 c 0,0.351 -0.285,0.636 -0.637,0.636 h -61.742 c -0.352,0 -0.637,-0.285 -0.637,-0.636 v -2.223 c 0,-0.351 0.285,-0.636 0.637,-0.636 h 61.742 c 0.352,0 0.637,0.285 0.637,0.636 z m -19.599,-3.033 c 0.042,0.069 0.083,0.141 0.125,0.21 h -24.068 c 0.043,-0.069 0.084,-0.141 0.127,-0.21 2.536,-4.135 7.04,-6.683 11.908,-6.683 4.869,0 9.373,2.548 11.908,6.683 z m 21.594,-24.301 c 0,1.005 -0.818,1.823 -1.822,1.823 -1.006,0 -1.824,-0.818 -1.824,-1.823 v -11.976 c 0,-1.005 0.818,-1.822 1.824,-1.822 1.004,0 1.822,0.817 1.822,1.822 z"
       id="path52"
       inkscape:connector-curvature="0"
       style="fill:#594637" /><g
       id="g104"><g
         id="g102"><path
           d="m 1269.759,-568.359 h -5.107 c -0.201,0 -0.364,0.163 -0.364,0.365 0,0.201 0.163,0.364 0.364,0.364 h 5.107 c 0.202,0 0.364,-0.163 0.364,-0.364 0,-0.203 -0.162,-0.365 -0.364,-0.365 z"
           id="path54"
           inkscape:connector-curvature="0"
           style="fill:#594a42" /><path
           d="m 1261.413,-563.244 c 0,-0.201 -0.163,-0.364 -0.364,-0.364 h -1.34 c -0.201,0 -0.365,0.163 -0.365,0.364 0,0.202 0.164,0.365 0.365,0.365 h 1.34 c 0.201,0 0.364,-0.163 0.364,-0.365 z"
           id="path56"
           inkscape:connector-curvature="0"
           style="fill:#594a42" /><path
           d="m 1253.02,-563.402 c 0,-0.201 -0.162,-0.365 -0.363,-0.365 h -1.34 c -0.202,0 -0.365,0.165 -0.365,0.365 0,0.201 0.163,0.364 0.365,0.364 h 1.34 c 0.2,0 0.363,-0.163 0.363,-0.364 z"
           id="path58"
           inkscape:connector-curvature="0"
           style="fill:#594a42" /><path
           d="m 1262.633,-570.6 h 2.256 c 0.201,0 0.365,-0.163 0.365,-0.365 0,-0.201 -0.164,-0.364 -0.365,-0.364 h -2.256 c -0.202,0 -0.365,0.163 -0.365,0.364 0,0.203 0.163,0.365 0.365,0.365 z"
           id="path60"
           inkscape:connector-curvature="0"
           style="fill:#594a42" /><path
           d="m 1272.016,-572.397 h -2.257 c -0.201,0 -0.364,0.163 -0.364,0.364 0,0.203 0.163,0.365 0.364,0.365 h 2.257 c 0.201,0 0.365,-0.163 0.365,-0.365 0,-0.201 -0.164,-0.364 -0.365,-0.364 z"
           id="path62"
           inkscape:connector-curvature="0"
           style="fill:#594a42" /><path
           d="m 1247.549,-560.401 h -2.258 c -0.201,0 -0.364,0.163 -0.364,0.364 0,0.202 0.163,0.365 0.364,0.365 h 2.258 c 0.201,0 0.363,-0.163 0.363,-0.365 0,-0.202 -0.162,-0.364 -0.363,-0.364 z"
           id="path64"
           inkscape:connector-curvature="0"
           style="fill:#594a42" /><path
           d="m 1241.927,-560.283 h -2.257 c -0.201,0 -0.365,0.164 -0.365,0.365 0,0.201 0.164,0.365 0.365,0.365 h 2.257 c 0.202,0 0.364,-0.164 0.364,-0.365 0,-0.201 -0.162,-0.365 -0.364,-0.365 z"
           id="path66"
           inkscape:connector-curvature="0"
           style="fill:#594a42" /><path
           d="m 1250.279,-566.339 h -2.256 c -0.202,0 -0.365,0.163 -0.365,0.364 0,0.202 0.163,0.365 0.365,0.365 h 2.256 c 0.202,0 0.365,-0.163 0.365,-0.365 10e-4,-0.202 -0.163,-0.364 -0.365,-0.364 z"
           id="path68"
           inkscape:connector-curvature="0"
           style="fill:#594a42" /><path
           d="m 1267.146,-564.203 h -2.258 c -0.201,0 -0.363,0.164 -0.363,0.365 0,0.201 0.162,0.365 0.363,0.365 h 2.258 c 0.201,0 0.364,-0.165 0.364,-0.365 10e-4,-0.201 -0.162,-0.365 -0.364,-0.365 z"
           id="path70"
           inkscape:connector-curvature="0"
           style="fill:#594a42" /><path
           d="m 1262.751,-560.757 h -2.257 c -0.201,0 -0.364,0.163 -0.364,0.364 0,0.202 0.163,0.365 0.364,0.365 h 2.257 c 0.202,0 0.364,-0.163 0.364,-0.365 0,-0.201 -0.162,-0.364 -0.364,-0.364 z"
           id="path72"
           inkscape:connector-curvature="0"
           style="fill:#594a42" /><path
           d="m 1228.545,-563.846 h -2.257 c -0.202,0 -0.364,0.163 -0.364,0.364 0,0.202 0.162,0.365 0.364,0.365 h 2.257 c 0.201,0 0.365,-0.163 0.365,-0.365 0,-0.201 -0.164,-0.364 -0.365,-0.364 z"
           id="path74"
           inkscape:connector-curvature="0"
           style="fill:#594a42" /><path
           d="m 1234.602,-561.827 h -2.256 c -0.201,0 -0.365,0.163 -0.365,0.365 0,0.201 0.164,0.364 0.365,0.364 h 2.256 c 0.202,0 0.365,-0.163 0.365,-0.364 0,-0.202 -0.163,-0.365 -0.365,-0.365 z"
           id="path76"
           inkscape:connector-curvature="0"
           style="fill:#594a42" /><path
           d="m 1258.594,-566.102 h -3.682 c -0.201,0 -0.365,0.163 -0.365,0.364 0,0.203 0.164,0.365 0.365,0.365 h 3.682 c 0.201,0 0.365,-0.163 0.365,-0.365 0,-0.201 -0.164,-0.364 -0.365,-0.364 z"
           id="path78"
           inkscape:connector-curvature="0"
           style="fill:#594a42" /><path
           d="m 1266.434,-574.4 h 3.682 c 0.201,0 0.363,-0.163 0.363,-0.364 0,-0.203 -0.162,-0.365 -0.363,-0.365 h -3.682 c -0.201,0 -0.365,0.163 -0.365,0.365 -10e-4,0.201 0.163,0.364 0.365,0.364 z"
           id="path80"
           inkscape:connector-curvature="0"
           style="fill:#594a42" /><path
           d="m 1256.574,-560.877 h -3.682 c -0.201,0 -0.364,0.163 -0.364,0.365 0,0.201 0.163,0.364 0.364,0.364 h 3.682 c 0.202,0 0.365,-0.163 0.365,-0.364 0,-0.202 -0.163,-0.365 -0.365,-0.365 z"
           id="path82"
           inkscape:connector-curvature="0"
           style="fill:#594a42" /><path
           d="m 1241.49,-562.879 h 3.684 c 0.201,0 0.363,-0.163 0.363,-0.365 0,-0.201 -0.162,-0.364 -0.363,-0.364 h -3.684 c -0.201,0 -0.363,0.163 -0.363,0.364 0,0.202 0.162,0.365 0.363,0.365 z"
           id="path84"
           inkscape:connector-curvature="0"
           style="fill:#594a42" /><g
           id="g100"><path
             d="m 1221.776,-564.249 c 2.845,4.283 7.613,6.842 12.757,6.842 h 24.953 c 5.143,0 9.911,-2.559 12.755,-6.842 2.45,-3.691 3.161,-8.199 2.036,-12.408 h -54.537 c -1.125,4.209 -0.414,8.717 2.036,12.408 z"
             id="path86"
             inkscape:connector-curvature="0"
             style="fill:none" /><path
             d="m 1228.86,-593.838 -8.439,15.177 c -0.177,0.419 -0.327,0.846 -0.464,1.275 h 54.104 c -0.137,-0.429 -0.287,-0.855 -0.464,-1.275 l -8.438,-15.177 z"
             id="path88"
             inkscape:connector-curvature="0"
             style="fill:none" /><path
             d="m 1264.967,-623.857 8.096,-14.698 c 0.189,-0.477 0.136,-0.994 -0.149,-1.423 -0.29,-0.44 -0.76,-0.691 -1.286,-0.691 h -49.235 c -0.526,0 -0.995,0.251 -1.286,0.69 -0.285,0.43 -0.339,0.947 -0.15,1.423 l 8.097,14.698 h 35.913 z"
             id="path90"
             inkscape:connector-curvature="0"
             style="fill:none" /><path
             d="m 1277.887,-596.97 c 0.166,-0.033 0.317,-0.098 0.458,-0.177 0.464,-0.261 0.769,-0.739 0.801,-1.275 0.01,-0.132 0.01,-0.266 -0.021,-0.401 -0.146,-0.735 -3.39,-3.294 -4.138,-3.294 -0.102,0 -0.205,0.01 -0.309,0.03 -0.26,0.051 -0.486,0.169 -0.678,0.326 -0.402,0.326 -0.629,0.835 -0.575,1.375 0.01,0.051 0.01,0.102 0.015,0.153 0.166,0.834 3.578,3.437 4.447,3.263 z"
             id="path92"
             inkscape:connector-curvature="0"
             style="fill:none" /><polyline
             points="1261.822,-609.469 1261.873,-609.588 1261.873,-611.021 1261.873,-609.588 1267.418,-622.399       1266.681,-622.399 1264.232,-622.399 1229.785,-622.399 1227.338,-622.399 1226.6,-622.399 1232.195,-609.469     "
             id="polyline94"
             style="fill:none" /><path
             d="m 1275.5,-592.774 c -0.131,0 -0.254,0.021 -0.375,0.05 -0.504,0.124 -0.91,0.488 -1.094,0.966 -0.066,0.174 -0.107,0.362 -0.107,0.56 0,0.869 2.12,3.149 2.989,3.149 0.175,0 0.341,-0.035 0.499,-0.088 0.487,-0.164 0.865,-0.558 1.008,-1.055 0.041,-0.138 0.068,-0.281 0.068,-0.432 0,-0.869 -2.121,-3.15 -2.988,-3.15 z"
             id="path96"
             inkscape:connector-curvature="0"
             style="fill:none" /><path
             d="m 1279.262,-588.726 c -0.066,-0.024 -0.133,-0.061 -0.198,-0.092 0.095,-0.251 0.153,-0.521 0.153,-0.806 0,-1.271 -2.447,-3.879 -3.717,-3.879 -0.294,0 -0.572,0.061 -0.832,0.161 -1.239,-1.74 -2.503,-3.984 -3.744,-6.192 -1.097,-1.952 -2.168,-3.854 -3.244,-5.474 0.555,0.454 1.112,0.927 1.666,1.398 1.15,0.979 2.273,1.933 3.369,2.728 -0.039,0.256 -0.044,0.522 0.01,0.792 0.215,1.074 3.758,3.881 4.853,3.881 0.148,0 0.3,-0.014 0.452,-0.045 0.475,-0.095 0.885,-0.331 1.199,-0.655 0.189,0.035 0.378,0.062 0.564,0.072 0.015,10e-4 0.029,10e-4 0.043,10e-4 0.383,0 0.705,-0.299 0.727,-0.687 0.023,-0.401 -0.283,-0.747 -0.686,-0.77 0,0 -0.01,-10e-4 -0.016,-0.002 0.021,-0.219 0.023,-0.443 -0.022,-0.671 -0.243,-1.22 -4.036,-4.09 -5.304,-3.836 -0.449,0.089 -0.838,0.307 -1.145,0.603 -1.016,-0.75 -2.064,-1.642 -3.101,-2.522 -2.317,-1.971 -4.527,-3.847 -6.61,-4.503 -0.104,-0.053 -0.209,-0.097 -0.314,-0.14 l 5.831,-13.474 c 0.098,-0.226 0.075,-0.485 -0.06,-0.69 -0.135,-0.205 -0.363,-0.329 -0.609,-0.329 h -1.113 l 7.621,-13.751 c 0.011,-0.022 0.021,-0.045 0.029,-0.067 0.488,-1.155 0.364,-2.467 -0.329,-3.511 -0.693,-1.045 -1.855,-1.668 -3.108,-1.668 h -49.235 c -1.253,0 -2.415,0.623 -3.108,1.667 -0.693,1.043 -0.817,2.357 -0.331,3.512 0.011,0.022 0.021,0.045 0.031,0.067 l 7.62,13.751 h -1.113 c -0.246,0 -0.475,0.124 -0.609,0.329 -0.135,0.205 -0.158,0.464 -0.061,0.69 l 6.055,13.991 -6.055,13.991 c -0.098,0.225 -0.074,0.484 0.061,0.689 0.135,0.205 0.363,0.329 0.609,0.329 h 0.996 l -8.082,14.329 c -2.28,5.417 -1.701,11.573 1.551,16.47 3.25,4.895 8.7,7.819 14.578,7.819 h 24.953 c 5.877,0 11.326,-2.924 14.576,-7.819 3.252,-4.897 3.831,-11.053 1.551,-16.47 l -8.082,-14.329 h 0.996 c 0.246,0 0.475,-0.124 0.609,-0.329 0.134,-0.205 0.157,-0.464 0.06,-0.689 l -5.446,-12.588 c 1.9,1.511 3.93,5.114 5.902,8.625 1.317,2.343 2.598,4.616 3.893,6.413 -0.218,0.353 -0.35,0.765 -0.35,1.208 0,1.271 2.447,3.878 3.718,3.878 0.44,0 0.849,-0.13 1.2,-0.346 0.215,0.122 0.43,0.231 0.646,0.311 0.083,0.03 0.168,0.043 0.252,0.043 0.296,0 0.576,-0.184 0.684,-0.478 0.138,-0.379 -0.056,-0.797 -0.434,-0.936 z m -5.045,-12.824 c 0.174,-0.141 0.379,-0.248 0.613,-0.295 0.094,-0.019 0.188,-0.027 0.28,-0.027 0.677,0 3.61,2.315 3.743,2.981 0.025,0.122 0.027,0.244 0.02,0.363 -0.029,0.485 -0.305,0.917 -0.725,1.153 -0.127,0.072 -0.264,0.13 -0.414,0.16 -0.786,0.157 -3.873,-2.197 -4.024,-2.953 -0.01,-0.046 -0.01,-0.092 -0.013,-0.139 -0.049,-0.487 0.157,-0.949 0.52,-1.243 z m -53.262,-37.005 c -0.188,-0.477 -0.135,-0.994 0.15,-1.423 0.291,-0.439 0.76,-0.69 1.286,-0.69 h 49.235 c 0.526,0 0.996,0.251 1.286,0.691 0.285,0.429 0.339,0.946 0.149,1.423 l -8.096,14.698 h -35.915 z m 51.286,74.306 c -2.844,4.283 -7.612,6.842 -12.755,6.842 h -24.953 c -5.144,0 -9.912,-2.559 -12.757,-6.842 -2.45,-3.691 -3.161,-8.199 -2.036,-12.408 h 54.537 c 1.125,4.209 0.414,8.717 -2.036,12.408 z m 1.356,-14.412 c 0.177,0.419 0.327,0.846 0.464,1.275 h -54.104 c 0.137,-0.429 0.287,-0.855 0.464,-1.275 l 8.439,-15.177 h 36.298 z m -41.402,-30.808 -5.596,-12.931 h 0.738 2.447 34.447 2.448 0.737 l -5.545,12.812 v 1.577 h 0.043 l 5.502,12.715 h -0.501 -2.373 -35.069 -2.374 -0.501 l 5.502,-12.715 h 20.83 v -1.577 z m 45.951,20.125 c -0.126,0.435 -0.456,0.78 -0.883,0.924 -0.139,0.046 -0.284,0.078 -0.438,0.078 -0.761,0 -2.618,-1.998 -2.618,-2.759 0,-0.173 0.035,-0.337 0.094,-0.49 0.16,-0.419 0.518,-0.738 0.959,-0.846 0.105,-0.025 0.214,-0.043 0.327,-0.043 0.761,0 2.618,1.999 2.618,2.759 0,0.131 -0.025,0.257 -0.059,0.377 z"
             id="path98"
             inkscape:connector-curvature="0"
             style="fill:#594a42" /></g></g></g><g
       id="g132"><g
         id="g130"><path
           d="m 1273.6,-496.438 c -0.034,0 -0.066,0.008 -0.1,0.011 0.115,0.849 0.181,1.713 0.181,2.593 0,0.88 -0.065,1.744 -0.181,2.593 0.033,10e-4 0.065,0.01 0.1,0.01 h 6.051 c 1.07,0 1.943,-0.872 1.943,-1.944 v -1.318 c 0,-1.071 -0.873,-1.943 -1.943,-1.943 h -6.051 z"
           id="path106"
           inkscape:connector-curvature="0"
           style="fill:none" /><path
           d="m 1254.547,-484.796 c -4.983,0 -9.038,-4.055 -9.038,-9.038 0,-0.403 -0.326,-0.729 -0.729,-0.729 -0.402,0 -0.729,0.326 -0.729,0.729 0,5.787 4.709,10.496 10.496,10.496 0.404,0 0.729,-0.325 0.729,-0.729 0,-0.404 -0.325,-0.729 -0.729,-0.729 z"
           id="path108"
           inkscape:connector-curvature="0"
           style="fill:none" /><path
           d="m 1271.037,-497.728 c -1.766,-7.474 -8.485,-13.053 -16.49,-13.053 -9.344,0 -16.945,7.603 -16.945,16.946 0,9.343 7.602,16.946 16.945,16.946 8.005,0 14.727,-5.581 16.49,-13.053 0.1,-0.424 0.188,-0.852 0.255,-1.286 0.132,-0.85 0.202,-1.721 0.202,-2.607 0,-0.886 -0.07,-1.758 -0.202,-2.608 -0.067,-0.435 -0.155,-0.863 -0.255,-1.285 z m -16.49,17.093 c -7.289,0 -13.199,-5.909 -13.199,-13.199 0,-7.29 5.91,-13.199 13.199,-13.199 7.291,0 13.2,5.909 13.2,13.199 0,7.29 -5.909,13.199 -13.2,13.199 z"
           id="path110"
           inkscape:connector-curvature="0"
           style="fill:none" /><path
           d="m 1273.6,-498.625 c -0.176,0 -0.348,0.015 -0.518,0.037 -2.119,-8.258 -9.625,-14.379 -18.535,-14.379 -10.549,0 -19.133,8.583 -19.133,19.133 0,10.549 8.584,19.133 19.133,19.133 8.91,0 16.416,-6.121 18.535,-14.379 0.17,0.021 0.342,0.035 0.518,0.035 h 6.051 c 0.704,0 1.365,-0.182 1.946,-0.494 0.826,-0.582 1.854,-1.803 1.854,-4.296 0,-2.58 -0.861,-3.669 -1.861,-4.298 -0.58,-0.312 -1.238,-0.492 -1.939,-0.492 z m -2.308,7.398 c -0.067,0.435 -0.155,0.862 -0.255,1.286 -1.764,7.472 -8.485,13.053 -16.49,13.053 -9.344,0 -16.945,-7.603 -16.945,-16.946 0,-9.343 7.602,-16.946 16.945,-16.946 8.005,0 14.725,5.579 16.49,13.053 0.1,0.422 0.188,0.85 0.255,1.285 0.132,0.851 0.202,1.722 0.202,2.608 0,0.886 -0.07,1.758 -0.202,2.607 z m 10.302,-3.267 v 1.318 c 0,1.072 -0.873,1.944 -1.943,1.944 h -6.051 c -0.034,0 -0.066,-0.009 -0.1,-0.01 0.115,-0.849 0.181,-1.713 0.181,-2.593 0,-0.88 -0.065,-1.744 -0.181,-2.593 0.033,-0.003 0.065,-0.011 0.1,-0.011 h 6.051 c 1.07,0.001 1.943,0.874 1.943,1.945 z"
           id="path112"
           inkscape:connector-curvature="0"
           style="fill:#594a42" /><path
           d="m 1267.747,-493.835 c 0,-7.29 -5.909,-13.199 -13.2,-13.199 -7.289,0 -13.199,5.909 -13.199,13.199 0,7.29 5.91,13.199 13.199,13.199 7.291,0 13.2,-5.909 13.2,-13.199 z m -12.471,-9.768 c 0,0.403 -0.325,0.729 -0.729,0.729 -4.983,0 -9.038,4.055 -9.038,9.038 0,0.403 -0.326,0.729 -0.729,0.729 -0.402,0 -0.729,-0.326 -0.729,-0.729 0,-5.787 4.709,-10.496 10.496,-10.496 0.404,10e-4 0.729,0.326 0.729,0.729 z"
           id="path114"
           inkscape:connector-curvature="0"
           style="fill:#594a42" /><g
           id="g128"><path
             d="m 1225.625,-506.3 c -1.656,3.826 -2.578,8.04 -2.578,12.466 0,6.327 1.882,12.22 5.105,17.162 v -27.894 c -1.013,-0.379 -1.855,-0.968 -2.527,-1.734 z"
             id="path116"
             inkscape:connector-curvature="0"
             style="fill:none" /><path
             d="m 1233.742,-504.404 v 34.192 c 5.553,4.897 12.836,7.878 20.805,7.878 17.37,0 31.501,-14.131 31.501,-31.5 0,-17.37 -14.131,-31.5 -31.501,-31.5 -6.565,0 -12.666,2.022 -17.719,5.472 1.16,2.413 1.773,5.359 1.773,7.79 10e-4,3.997 -1.757,6.741 -4.859,7.668 z"
             id="path118"
             inkscape:connector-curvature="0"
             style="fill:none" /><path
             d="m 1230.34,-470.206 v 3.308 c 0,0.334 0.273,0.606 0.607,0.606 0.334,0 0.607,-0.272 0.607,-0.606 v -2.124 c -0.415,-0.383 -0.82,-0.779 -1.214,-1.184 z"
             id="path120"
             inkscape:connector-curvature="0"
             style="fill:none" /><path
             d="m 1232.461,-506.347 c 2.624,-0.455 3.953,-2.382 3.953,-5.727 0,-2.157 -0.535,-4.533 -1.391,-6.453 -3.412,2.703 -6.252,6.092 -8.309,9.962 0.587,1.091 1.512,1.813 2.793,2.13 0.488,0.12 0.832,0.559 0.832,1.062 v 31.668 c 0.391,0.469 0.798,0.923 1.215,1.369 v -32.934 c 10e-4,-0.532 0.384,-0.986 0.907,-1.077 z"
             id="path122"
             inkscape:connector-curvature="0"
             style="fill:none" /><path
             d="m 1254.547,-527.685 c -7.004,0 -13.517,2.138 -18.922,5.795 0.453,0.604 0.851,1.293 1.203,2.027 5.053,-3.45 11.153,-5.472 17.719,-5.472 17.37,0 31.501,14.13 31.501,31.5 0,17.369 -14.131,31.5 -31.501,31.5 -7.969,0 -15.252,-2.98 -20.805,-7.878 v 3.05 c 5.744,4.491 12.965,7.178 20.805,7.178 18.666,0 33.852,-15.187 33.852,-33.851 -10e-4,-18.664 -15.186,-33.849 -33.852,-33.849 z"
             id="path124"
             inkscape:connector-curvature="0"
             style="fill:#594a42" /><path
             d="m 1236.828,-519.863 c -0.353,-0.733 -0.75,-1.422 -1.203,-2.027 -1.162,-1.55 -2.649,-2.577 -4.436,-2.577 -4.771,0 -7.41,7.328 -7.41,12.393 0,1.188 0.166,2.245 0.457,3.192 -2.261,4.536 -3.54,9.644 -3.54,15.047 0,8.001 2.797,15.359 7.456,21.159 v 5.777 c 0,1.54 1.254,2.794 2.795,2.794 1.54,0 2.795,-1.254 2.795,-2.794 v -0.264 -3.05 -34.192 c 3.102,-0.927 4.859,-3.671 4.859,-7.669 10e-4,-2.43 -0.613,-5.376 -1.773,-7.789 z m -8.676,43.191 c -3.224,-4.941 -5.105,-10.834 -5.105,-17.162 0,-4.427 0.922,-8.641 2.578,-12.466 0.672,0.766 1.514,1.355 2.527,1.734 z m 4.309,-29.675 c -0.523,0.091 -0.906,0.545 -0.906,1.077 v 32.934 3.314 2.124 c 0,0.334 -0.273,0.606 -0.607,0.606 -0.334,0 -0.607,-0.272 -0.607,-0.606 v -3.308 -3.499 -31.668 c 0,-0.503 -0.344,-0.941 -0.832,-1.062 -1.281,-0.317 -2.206,-1.039 -2.793,-2.13 -0.475,-0.882 -0.729,-2.006 -0.742,-3.384 -10e-4,-0.043 -0.01,-0.082 -0.01,-0.125 0,-4.594 2.41,-10.206 5.224,-10.206 0.957,0 1.863,0.659 2.648,1.696 0.439,0.581 0.838,1.279 1.186,2.057 0.855,1.92 1.391,4.296 1.391,6.453 0,3.345 -1.331,5.272 -3.955,5.727 z"
             id="path126"
             inkscape:connector-curvature="0"
             style="fill:#594a42" /></g></g></g><g
       id="g166"><g
         id="g136"><path
           d="m 1388.582,-407.967 h -39.177 v -7.07 h 39.177 z m -37.092,0.915 h 35.007 v -5.9 h -35.007 z"
           id="path134"
           inkscape:connector-curvature="0"
           style="fill:#594637" /></g><path
         d="m 1394.443,-345.104 h -51.352 l 1.08,-57.387 6.546,-6.441 h 37.573 l 5.074,6.52 z m -49.226,-2.084 h 47.104 l -1.027,-54.49 -4.021,-5.167 h -35.699 l -5.331,5.246 z"
         id="path138"
         inkscape:connector-curvature="0"
         style="fill:#594637" /><path
         d="m 1369.463,-365.331 c -6.889,0 -12.492,-5.605 -12.492,-12.494 0,-6.889 5.604,-12.493 12.492,-12.493 6.89,0 12.494,5.604 12.494,12.493 0,6.889 -5.604,12.494 -12.494,12.494 z m 0,-23.487 c -6.062,0 -10.992,4.932 -10.992,10.993 0,6.062 4.931,10.994 10.992,10.994 6.063,0 10.994,-4.932 10.994,-10.994 0,-6.062 -4.932,-10.993 -10.994,-10.993 z"
         id="path140"
         inkscape:connector-curvature="0"
         style="fill:#594637" /><rect
         height="1.304"
         width="24.256001"
         x="1368.145"
         y="-402.69699"
         id="rect142"
         style="fill:#594637" /><rect
         height="3.346"
         width="1.303"
         x="1354.658"
         y="-413.08801"
         id="rect144"
         style="fill:#594637" /><rect
         height="3.346"
         width="1.303"
         x="1362.6021"
         y="-413.08801"
         id="rect146"
         style="fill:#594637" /><rect
         height="3.346"
         width="1.303"
         x="1370.545"
         y="-413.08801"
         id="rect148"
         style="fill:#594637" /><rect
         height="3.346"
         width="1.302"
         x="1378.489"
         y="-413.08801"
         id="rect150"
         style="fill:#594637" /><rect
         height="3.346"
         width="1.303"
         x="1382.4611"
         y="-413.08801"
         id="rect152"
         style="fill:#594637" /><rect
         height="3.346"
         width="1.302"
         x="1374.5179"
         y="-413.08801"
         id="rect154"
         style="fill:#594637" /><rect
         height="3.346"
         width="1.302"
         x="1366.574"
         y="-413.08801"
         id="rect156"
         style="fill:#594637" /><rect
         height="3.346"
         width="1.304"
         x="1358.629"
         y="-413.08801"
         id="rect158"
         style="fill:#594637" /><rect
         height="1.303"
         width="37.053001"
         x="1344.1541"
         y="-351.995"
         id="rect160"
         style="fill:#594637" /><rect
         height="1.303"
         width="3.5910001"
         x="1383.479"
         y="-351.995"
         id="rect162"
         style="fill:#594637" /><rect
         height="1.304"
         width="7.6459999"
         x="1358.225"
         y="-402.69699"
         id="rect164"
         style="fill:#594637" /></g><g
       id="g208"><g
         id="g178"><g
           id="g172"><rect
             height="1.12"
             width="18.950001"
             x="1241.213"
             y="-418.00101"
             id="rect168"
             style="fill:none" /><path
             d="m 1235.633,-393.115 0.104,0.231 -0.016,0.252 c 0,0.012 -0.01,0.099 -0.024,0.257 -0.602,5.764 -3.422,34.833 -0.933,50.235 h 31.918 c 2.494,-15.434 -0.333,-44.493 -0.936,-50.254 -0.015,-0.144 -0.022,-0.223 -0.023,-0.233 l -0.016,-0.255 0.104,-0.233 c 0.961,-2.159 1.547,-5.621 1.887,-8.967 h -33.952 c 0.313,3.161 0.877,6.694 1.887,8.967 z"
             id="path170"
             inkscape:connector-curvature="0"
             style="fill:none" /></g><g
           id="g176"><path
             d="m 1250.984,-369.044 c -7.996,0 -14.26,-3.661 -14.26,-8.335 0,-4.673 6.264,-8.334 14.26,-8.334 1.935,0 3.82,0.223 5.604,0.663 2.111,0.521 3.994,1.344 5.446,2.38 2.099,1.499 3.208,3.328 3.208,5.291 0,1.969 -1.115,3.803 -3.226,5.305 -1.44,1.024 -3.312,1.841 -5.409,2.362 -1.79,0.443 -3.681,0.668 -5.623,0.668 z m 0,-15.169 c -6.917,0 -12.76,3.129 -12.76,6.834 0,3.705 5.843,6.835 12.76,6.835 1.819,0 3.59,-0.21 5.262,-0.625 1.918,-0.476 3.612,-1.211 4.901,-2.128 1.184,-0.842 2.595,-2.234 2.595,-4.082 0,-1.842 -1.402,-3.23 -2.579,-4.07 -1.299,-0.927 -3.006,-1.668 -4.935,-2.145 -1.665,-0.411 -3.43,-0.619 -5.244,-0.619 z"
             id="path174"
             inkscape:connector-curvature="0"
             style="fill:#594637" /></g></g><g
         id="g206"><path
           d="m 1264.496,-353.15 h -5.107 c -0.201,0 -0.365,0.163 -0.365,0.365 0,0.2 0.164,0.363 0.365,0.363 h 5.107 c 0.201,0 0.364,-0.163 0.364,-0.363 0,-0.202 -0.163,-0.365 -0.364,-0.365 z"
           id="path180"
           inkscape:connector-curvature="0"
           style="fill:#594637" /><path
           d="m 1256.15,-348.035 c 0,-0.201 -0.163,-0.364 -0.365,-0.364 h -1.339 c -0.202,0 -0.364,0.163 -0.364,0.364 0,0.202 0.162,0.365 0.364,0.365 h 1.339 c 0.202,0 0.365,-0.163 0.365,-0.365 z"
           id="path182"
           inkscape:connector-curvature="0"
           style="fill:#594637" /><path
           d="m 1247.758,-348.193 c 0,-0.2 -0.164,-0.364 -0.365,-0.364 h -1.34 c -0.201,0 -0.364,0.164 -0.364,0.364 0,0.201 0.163,0.364 0.364,0.364 h 1.34 c 0.201,0 0.365,-0.163 0.365,-0.364 z"
           id="path184"
           inkscape:connector-curvature="0"
           style="fill:#594637" /><path
           d="m 1257.369,-355.391 h 2.258 c 0.201,0 0.363,-0.163 0.363,-0.365 0,-0.201 -0.162,-0.363 -0.363,-0.363 h -2.258 c -0.201,0 -0.364,0.162 -0.364,0.363 0,0.202 0.163,0.365 0.364,0.365 z"
           id="path186"
           inkscape:connector-curvature="0"
           style="fill:#594637" /><path
           d="m 1266.753,-357.188 h -2.257 c -0.201,0 -0.365,0.162 -0.365,0.363 0,0.202 0.164,0.365 0.365,0.365 h 2.257 c 0.202,0 0.364,-0.163 0.364,-0.365 0,-0.2 -0.162,-0.363 -0.364,-0.363 z"
           id="path188"
           inkscape:connector-curvature="0"
           style="fill:#594637" /><path
           d="m 1242.285,-345.192 h -2.257 c -0.201,0 -0.364,0.162 -0.364,0.363 0,0.202 0.163,0.365 0.364,0.365 h 2.257 c 0.201,0 0.365,-0.163 0.365,-0.365 0,-0.201 -0.164,-0.363 -0.365,-0.363 z"
           id="path190"
           inkscape:connector-curvature="0"
           style="fill:#594637" /><path
           d="m 1245.018,-351.131 h -2.258 c -0.201,0 -0.363,0.163 -0.363,0.364 0,0.202 0.162,0.365 0.363,0.365 h 2.258 c 0.201,0 0.364,-0.163 0.364,-0.365 0,-0.201 -0.163,-0.364 -0.364,-0.364 z"
           id="path192"
           inkscape:connector-curvature="0"
           style="fill:#594637" /><path
           d="m 1261.883,-348.994 h -2.256 c -0.202,0 -0.365,0.165 -0.365,0.365 0,0.201 0.163,0.365 0.365,0.365 h 2.256 c 0.201,0 0.365,-0.164 0.365,-0.365 0,-0.2 -0.164,-0.365 -0.365,-0.365 z"
           id="path194"
           inkscape:connector-curvature="0"
           style="fill:#594637" /><path
           d="m 1257.488,-345.549 h -2.257 c -0.201,0 -0.364,0.163 -0.364,0.364 0,0.202 0.163,0.365 0.364,0.365 h 2.257 c 0.201,0 0.364,-0.163 0.364,-0.365 10e-4,-0.201 -0.163,-0.364 -0.364,-0.364 z"
           id="path196"
           inkscape:connector-curvature="0"
           style="fill:#594637" /><path
           d="m 1253.331,-350.893 h -3.683 c -0.201,0 -0.363,0.162 -0.363,0.363 0,0.202 0.162,0.365 0.363,0.365 h 3.683 c 0.202,0 0.364,-0.163 0.364,-0.365 0,-0.2 -0.162,-0.363 -0.364,-0.363 z"
           id="path198"
           inkscape:connector-curvature="0"
           style="fill:#594637" /><path
           d="m 1261.17,-359.191 h 3.682 c 0.202,0 0.365,-0.163 0.365,-0.364 0,-0.202 -0.163,-0.365 -0.365,-0.365 h -3.682 c -0.201,0 -0.363,0.163 -0.363,0.365 0,0.201 0.162,0.364 0.363,0.364 z"
           id="path200"
           inkscape:connector-curvature="0"
           style="fill:#594637" /><path
           d="m 1251.313,-345.668 h -3.683 c -0.201,0 -0.364,0.163 -0.364,0.365 0,0.201 0.163,0.364 0.364,0.364 h 3.683 c 0.201,0 0.364,-0.163 0.364,-0.364 0,-0.202 -0.163,-0.365 -0.364,-0.365 z"
           id="path202"
           inkscape:connector-curvature="0"
           style="fill:#594637" /><path
           d="m 1236.229,-347.67 h 3.682 c 0.201,0 0.365,-0.163 0.365,-0.365 0,-0.201 -0.164,-0.364 -0.365,-0.364 h -3.682 c -0.201,0 -0.365,0.163 -0.365,0.364 -10e-4,0.202 0.163,0.365 0.365,0.365 z"
           id="path204"
           inkscape:connector-curvature="0"
           style="fill:#594637" /></g></g><g
       id="g238"><path
         d="m 1478.184,-338.531 h -17.016 c -11.727,0 -22.16,-4.217 -22.16,-7.54 0,-1.609 2.256,-2.609 5.885,-2.609 h 49.564 c 1.666,0 5.537,0.255 5.537,2.609 0,1.676 -2.436,3.563 -6.52,5.048 -4.29,1.559 -10.007,2.492 -15.29,2.492 z m -33.291,-9.107 c -3.145,0 -4.844,0.807 -4.844,1.566 0,2.167 9.131,6.497 21.119,6.497 h 17.016 c 5.168,0 10.752,-0.908 14.936,-2.43 4.613,-1.678 5.832,-3.394 5.832,-4.067 0,-1.082 -2.256,-1.566 -4.494,-1.566 z"
         id="path210"
         inkscape:connector-curvature="0"
         style="fill:#594637" /><path
         d="m 1470.102,-407.879 c -6.035,0 -10.945,4.909 -10.945,10.945 0,6.035 4.91,10.945 10.945,10.945 6.035,0 10.945,-4.91 10.945,-10.945 0,-6.036 -4.91,-10.945 -10.945,-10.945 z m 0,20.819 c -5.453,0 -9.873,-4.421 -9.873,-9.874 0,-5.454 4.42,-9.875 9.873,-9.875 5.455,0 9.875,4.421 9.875,9.875 0,5.454 -4.42,9.874 -9.875,9.874 z"
         id="path212"
         inkscape:connector-curvature="0"
         style="fill:#594a42" /><path
         d="m 1470.102,-405.562 c -4.758,0 -8.627,3.87 -8.627,8.628 0,4.756 3.869,8.627 8.627,8.627 4.758,0 8.629,-3.871 8.629,-8.627 -10e-4,-4.757 -3.872,-8.628 -8.629,-8.628 z m 0,16.541 c -4.369,0 -7.914,-3.542 -7.914,-7.913 0,-4.37 3.545,-7.915 7.914,-7.915 4.371,0 7.914,3.545 7.914,7.915 0,4.371 -3.543,7.913 -7.914,7.913 z"
         id="path214"
         inkscape:connector-curvature="0"
         style="fill:#594a42" /><path
         d="m 1454.846,-393.118 c -1.178,0 -2.137,0.959 -2.137,2.137 0,1.179 0.959,2.137 2.137,2.137 1.178,0 2.137,-0.958 2.137,-2.137 -10e-4,-1.178 -0.96,-2.137 -2.137,-2.137 z m 0,3.559 c -0.785,0 -1.422,-0.637 -1.422,-1.423 0,-0.786 0.637,-1.423 1.422,-1.423 0.785,0 1.424,0.637 1.424,1.423 0,0.786 -0.639,1.423 -1.424,1.423 z"
         id="path216"
         inkscape:connector-curvature="0"
         style="fill:#594a42" /><path
         d="m 1486.145,-393.118 c -1.178,0 -2.137,0.959 -2.137,2.137 0,1.179 0.959,2.137 2.137,2.137 1.18,0 2.137,-0.958 2.137,-2.137 -10e-4,-1.178 -0.958,-2.137 -2.137,-2.137 z"
         id="path218"
         inkscape:connector-curvature="0"
         style="fill:#594a42" /><path
         d="m 1492.586,-399.945 c 0.422,-0.443 0.629,-1.075 0.506,-1.721 -0.143,-0.743 -0.732,-1.355 -1.465,-1.525 -0.15,-0.035 -0.307,-0.053 -0.457,-0.053 -1.08,0 -1.959,0.879 -1.959,1.959 0,0.516 0.199,0.991 0.537,1.344 -0.902,0.503 -1.516,1.465 -1.516,2.568 0,1.62 1.316,2.937 2.938,2.937 1.619,0 2.936,-1.316 2.936,-2.937 -10e-4,-1.106 -0.616,-2.069 -1.52,-2.572 z m -3.641,2.572 c 0,-0.84 0.467,-1.57 1.154,-1.949 v 1.771 c 0,0.59 0.48,1.07 1.07,1.07 0.588,0 1.068,-0.48 1.068,-1.07 v -1.771 c 0.688,0.379 1.154,1.109 1.154,1.949 0,1.228 -0.996,2.223 -2.223,2.223 -1.227,0 -2.223,-0.996 -2.223,-2.223 z m 0.979,-3.912 c 0,-0.688 0.559,-1.245 1.246,-1.245 0.096,0 0.195,0.012 0.295,0.034 0.467,0.107 0.836,0.497 0.926,0.966 0.105,0.548 -0.152,1.038 -0.572,1.296 -0.092,0.056 -0.188,0.104 -0.293,0.136 v 0.174 0.359 2.015 c 0,0.197 -0.16,0.356 -0.355,0.356 -0.197,0 -0.355,-0.159 -0.355,-0.356 v -2.015 -0.359 -0.174 c -0.107,-0.031 -0.205,-0.08 -0.297,-0.136 -0.355,-0.219 -0.595,-0.604 -0.595,-1.051 z"
         id="path220"
         inkscape:connector-curvature="0"
         style="fill:#594a42" /><path
         d="m 1452.131,-399.945 c 0.424,-0.443 0.631,-1.075 0.508,-1.721 -0.143,-0.743 -0.732,-1.355 -1.465,-1.525 -0.15,-0.035 -0.307,-0.053 -0.459,-0.053 -1.078,0 -1.957,0.879 -1.957,1.959 0,0.516 0.199,0.991 0.537,1.344 -0.902,0.503 -1.516,1.465 -1.516,2.568 0,1.62 1.316,2.937 2.936,2.937 1.621,0 2.938,-1.316 2.938,-2.937 -10e-4,-1.106 -0.616,-2.069 -1.522,-2.572 z m -3.639,2.572 c 0,-0.84 0.467,-1.57 1.154,-1.949 v 1.771 c 0,0.59 0.479,1.07 1.068,1.07 0.589,0 1.07,-0.48 1.07,-1.07 v -1.771 c 0.688,0.379 1.154,1.109 1.154,1.949 0,1.228 -0.996,2.223 -2.225,2.223 -1.225,0 -2.221,-0.996 -2.221,-2.223 z m 0.979,-3.912 c 0,-0.688 0.557,-1.245 1.244,-1.245 0.098,0 0.197,0.012 0.297,0.034 0.465,0.107 0.834,0.497 0.926,0.966 0.105,0.548 -0.154,1.038 -0.572,1.296 -0.092,0.056 -0.189,0.104 -0.293,0.136 v 0.174 0.359 2.015 c 0,0.197 -0.16,0.356 -0.357,0.356 -0.195,0 -0.355,-0.159 -0.355,-0.356 v -2.015 -0.359 -0.174 c -0.105,-0.031 -0.203,-0.08 -0.295,-0.136 -0.357,-0.219 -0.595,-0.604 -0.595,-1.051 z"
         id="path222"
         inkscape:connector-curvature="0"
         style="fill:#594a42" /><g
         id="g230"><path
           d="m 1476.176,-397.033 h -1.043 c 0,-2.704 -2.199,-4.903 -4.904,-4.903 -2.703,0 -4.902,2.199 -4.902,4.903 h -1.043 c 0,-3.279 2.668,-5.946 5.945,-5.946 3.279,0 5.947,2.666 5.947,5.946 z"
           id="path224"
           inkscape:connector-curvature="0"
           style="fill:#594637" /><path
           d="m 1470.229,-394.737 c -1.24,0 -2.25,-1.011 -2.25,-2.253 0,-1.24 1.01,-2.25 2.25,-2.25 1.242,0 2.252,1.01 2.252,2.25 -10e-4,1.242 -1.01,2.253 -2.252,2.253 z m 0,-3.461 c -0.666,0 -1.207,0.542 -1.207,1.208 0,0.667 0.541,1.21 1.207,1.21 0.668,0 1.209,-0.543 1.209,-1.21 0,-0.666 -0.542,-1.208 -1.209,-1.208 z"
           id="path226"
           inkscape:connector-curvature="0"
           style="fill:#594637" /><rect
           height="3.2839999"
           width="0.69499999"
           x="1469.881"
           y="-400.31699"
           id="rect228"
           style="fill:#594637" /></g><g
         id="g234"><path
           d="m 1448.539,-360.439 c 0,1.311 1.027,2.375 2.318,2.455 l -1.059,-4.592 c -0.747,0.425 -1.259,1.218 -1.259,2.137 z"
           id="path232"
           inkscape:connector-curvature="0"
           style="fill:none" /></g><path
         d="m 1507.717,-402.646 h -0.895 v -6.835 c 1.766,-0.825 2.996,-2.614 2.996,-4.689 0,-2.854 -2.324,-5.176 -5.178,-5.176 -2.855,0 -5.178,2.322 -5.178,5.176 0,2.15 1.318,3.998 3.188,4.779 v 6.745 h -3.854 c -7.553,-6.186 -19.672,-10.172 -27.018,-10.172 h -3.129 c -11.268,0 -33.787,9.379 -33.787,21.695 0,3.968 2.313,7.396 5.656,9.037 h -12.748 c -2.551,0 -3.932,1.38 -3.932,3.931 0,2.551 1.381,3.931 3.932,3.931 h 23.119 c 0.535,0.883 1.15,1.479 1.82,1.479 h 1.826 c 0.203,0.914 1.018,1.6 1.99,1.6 h 0.105 c 0.973,0 1.787,-0.686 1.99,-1.6 h 2.494 c 0.203,0.914 1.018,1.6 1.99,1.6 h 0.105 c 0.973,0 1.787,-0.686 1.988,-1.6 h 1.383 c 2.172,0 3.756,-6.239 3.975,-8.307 h 0.455 v 28.725 c 0.063,0.026 0.117,0.052 0.172,0.077 h -4.951 c 0.656,-0.383 1.148,-1.025 1.324,-1.818 l 2.607,-12.18 c 0.174,-0.786 -0.014,-1.597 -0.518,-2.225 -0.504,-0.627 -1.256,-0.988 -2.061,-0.988 h -14.846 c -0.807,0 -1.557,0.361 -2.061,0.989 -0.504,0.627 -0.693,1.438 -0.52,2.22 l 0.277,1.297 c -2.242,0.282 -3.984,2.197 -3.984,4.515 0,2.512 2.043,4.555 4.555,4.555 0.463,0 0.908,-0.07 1.33,-0.198 l 0.432,2.021 c 0.176,0.79 0.666,1.432 1.322,1.813 h -10.758 c -6.422,0 -8.709,2.949 -8.709,5.708 0,6.823 13.711,11.579 26.014,11.579 h 18.092 c 12.127,0 25.641,-4.756 25.641,-11.579 0,-1.716 -0.813,-5.708 -8.336,-5.708 h -2.998 c 0.107,-0.025 0.213,-0.051 0.338,-0.077 v -28.725 h 2.117 c 5.555,0 10.072,-4.519 10.072,-10.071 0,-0.73 -0.084,-1.45 -0.234,-2.159 h 2.385 c 0.543,0 0.984,-0.44 0.984,-0.984 v -7.396 c 0.01,-0.544 -0.436,-0.985 -0.979,-0.985 z m -56.608,40.818 0.559,2.616 c -0.195,0.107 -0.418,0.172 -0.658,0.172 -0.771,0 -1.4,-0.627 -1.4,-1.399 0,-0.772 0.629,-1.399 1.4,-1.399 0.035,-10e-4 0.066,0.006 0.099,0.01 z m -0.099,4.874 c -1.922,0 -3.484,-1.564 -3.484,-3.485 0,-1.804 1.379,-3.292 3.139,-3.466 l 0.215,1.002 c -1.301,0.069 -2.34,1.146 -2.34,2.464 0,1.363 1.107,2.471 2.471,2.471 0.314,0 0.613,-0.061 0.891,-0.168 l 0.213,0.999 c -0.349,0.116 -0.719,0.183 -1.105,0.183 z m 0.75,-9.166 c -0.098,-0.439 0.01,-0.892 0.289,-1.241 0.281,-0.352 0.699,-0.552 1.15,-0.552 h 13.932 c 0.449,0 0.869,0.2 1.148,0.552 0.281,0.35 0.387,0.802 0.289,1.244 l -2.447,11.431 c -0.166,0.75 -0.82,1.274 -1.59,1.274 h -8.732 c -0.77,0 -1.424,-0.524 -1.59,-1.272 z m 49.094,-48.05 c 0,-2.088 1.699,-3.786 3.787,-3.786 2.088,0 3.787,1.698 3.787,3.786 0,2.089 -1.699,3.788 -3.787,3.788 -2.088,0 -3.787,-1.699 -3.787,-3.788 z m 4.578,5.111 v 6.413 h -1.391 v -6.384 c 0.197,0.022 0.396,0.037 0.6,0.037 0.269,10e-4 0.533,-0.026 0.791,-0.066 z m -77.33,33.457 c -1.896,0 -2.765,-0.802 -2.765,-2.553 0,-1.75 0.869,-2.554 2.765,-2.554 h 20.267 c 0.129,1.082 0.692,3.363 1.543,5.106 h -21.81 z m 28.531,3.314 h -0.105 c -0.576,0 -1.063,-0.37 -1.244,-0.885 h 2.594 c -0.185,0.515 -0.671,0.885 -1.245,0.885 z m 6.58,0 h -0.105 c -0.576,0 -1.063,-0.37 -1.244,-0.885 h 2.594 c -0.185,0.515 -0.671,0.885 -1.245,0.885 z m 3.371,-1.956 h -1.404 -0.379 -0.375 -2.531 -0.375 -0.379 -2.541 -0.379 -0.375 -2.531 -0.375 -0.379 -1.85 c -0.271,0 -0.887,-1.326 -1.578,-3.004 h 17.029 c -0.691,1.678 -1.307,3.004 -1.578,3.004 z m 2.034,-4.214 h -17.941 c -0.39,-1.076 -0.677,-1.868 -0.81,-2.593 h 19.561 c -0.134,0.725 -0.42,1.517 -0.81,2.593 z m 27.419,28.509 c 2.254,0 6.037,0.443 6.037,3.408 0,4.684 -11.563,9.279 -23.342,9.279 h -18.092 c -11.746,0 -23.713,-4.683 -23.713,-9.279 0,-2.134 2.396,-3.408 6.408,-3.408 z m -18.555,-2.3 h -4.18 c 0.055,-0.025 0.109,-0.051 0.172,-0.077 v -28.725 h 3.992 v 28.725 c 0,0.027 0.011,0.051 0.016,0.077 z m 7.647,0 h -6.963 c 0,-0.026 0.016,-0.05 0.016,-0.077 v -28.725 h 6.932 v 28.725 c -10e-4,0.027 0.01,0.051 0.015,0.077 z m 5.803,0 h -5.121 c 0.01,-0.026 0.016,-0.05 0.016,-0.077 v -28.725 h 5.09 v 28.725 c -10e-4,0.027 0.011,0.051 0.015,0.077 z m 4.562,-30.887 h -50.559 c -4.404,0 -7.986,-3.583 -7.986,-7.986 0,-10.731 20.988,-19.61 31.701,-19.61 h 3.129 c 10.713,0 31.703,8.879 31.703,19.61 0,4.403 -3.584,7.986 -7.988,7.986 z m 11.756,-11.595 h -2.338 c -0.828,-2.313 -2.41,-4.483 -4.48,-6.464 h 6.818 z"
         id="path236"
         inkscape:connector-curvature="0"
         style="fill:#594637" /></g><g
       id="g268"><path
         d="m 1133.972,-560.479 c 1.396,1.061 3.114,1.647 4.836,1.647 h 23.677 c 1.693,0 3.34,-0.533 4.634,-1.499 7.242,-5.408 11.382,-14.028 11.071,-23.059 -0.233,-6.833 -3.053,-13.103 -7.496,-17.839 8.637,0.389 15.52,7.512 15.52,16.244 v 3.056 c 0,1.982 1.326,3.803 3.27,4.193 0.289,0.058 0.574,0.085 0.853,0.085 2.276,0 4.123,-1.845 4.123,-4.123 v -3.211 c 0,-13.535 -10.974,-24.508 -24.509,-24.508 h -2.318 v -6.333 h -33.156 c -0.745,0 -1.452,0.359 -1.891,0.961 -0.438,0.602 -0.564,1.384 -0.336,2.092 l 1.066,3.322 c -3.086,0.404 -5.099,4.21 -2.131,7.525 -5.002,4.992 -8.103,11.891 -8.103,19.501 0,8.681 3.969,16.681 10.89,21.946 z m -2.616,-45.831 c 0.379,-1.007 1.343,-1.686 2.414,-1.719 0.026,-10e-4 0.054,-0.006 0.081,-0.006 h 6.622 20.295 6.862 2.318 c 12.711,0 23.051,10.34 23.051,23.05 v 3.211 c 0,1.469 -1.195,2.665 -2.665,2.665 -0.187,0 -0.378,-0.02 -0.565,-0.058 -1.197,-0.239 -2.1,-1.427 -2.1,-2.763 v -3.056 c 0,-9.771 -7.949,-17.721 -17.721,-17.721 h -0.746 -3.404 -30.389 -2.96 c -0.073,-0.074 -0.134,-0.15 -0.2,-0.226 -0.968,-1.097 -1.299,-2.297 -0.893,-3.377 z m 2.996,-7.267 c 0.029,-0.042 0.07,-0.062 0.123,-0.062 h 30.97 v 3.481 h -30.061 l -1.054,-3.284 c -0.016,-0.048 -0.01,-0.094 0.022,-0.135 z m -0.707,12.33 h 33.92 c 4.972,4.488 8.199,10.885 8.439,17.932 0.072,2.102 -0.12,4.18 -0.552,6.193 h -49.625 c -0.362,-1.722 -0.56,-3.495 -0.56,-5.302 10e-4,-7.461 3.237,-14.177 8.378,-18.823 z m 41.63,24.853 c -1.389,5.654 -4.688,10.742 -9.466,14.31 -0.919,0.686 -2.101,1.064 -3.325,1.064 h -23.677 c -1.247,0 -2.493,-0.426 -3.511,-1.201 -4.729,-3.596 -7.956,-8.578 -9.31,-14.173 z"
         id="path240"
         inkscape:connector-curvature="0"
         style="fill:#594a42" /><path
         d="m 1148.195,-590.813 h 3.607 c 0.402,0 0.729,-0.326 0.729,-0.729 0,-0.403 -0.326,-0.729 -0.729,-0.729 h -3.607 c -0.402,0 -0.729,0.326 -0.729,0.729 0,0.402 0.327,0.729 0.729,0.729 z"
         id="path242"
         inkscape:connector-curvature="0"
         style="fill:#594a42" /><path
         d="m 1144.588,-585.885 h 10.822 c 0.403,0 0.729,-0.326 0.729,-0.729 0,-0.403 -0.325,-0.729 -0.729,-0.729 h -10.822 c -0.403,0 -0.729,0.326 -0.729,0.729 0,0.403 0.326,0.729 0.729,0.729 z"
         id="path244"
         inkscape:connector-curvature="0"
         style="fill:#594a42" /><path
         d="m 1151.803,-582.416 h -3.607 c -0.402,0 -0.729,0.327 -0.729,0.729 0,0.403 0.326,0.729 0.729,0.729 h 3.607 c 0.402,0 0.729,-0.326 0.729,-0.729 -10e-4,-0.401 -0.327,-0.729 -0.729,-0.729 z"
         id="path246"
         inkscape:connector-curvature="0"
         style="fill:#594a42" /><path
         d="m 1148.195,-571.102 h 3.607 c 0.402,0 0.729,-0.326 0.729,-0.729 0,-0.402 -0.326,-0.729 -0.729,-0.729 h -3.607 c -0.402,0 -0.729,0.327 -0.729,0.729 0,0.403 0.327,0.729 0.729,0.729 z"
         id="path248"
         inkscape:connector-curvature="0"
         style="fill:#594a42" /><g
         id="g256"><path
           d="m 1140.788,-637.049 c -0.342,0 -0.677,-0.168 -0.876,-0.477 -0.313,-0.483 -0.176,-1.129 0.309,-1.441 0.584,-0.378 1.18,-0.596 1.77,-0.646 0.568,-0.044 1.078,0.377 1.127,0.951 0.049,0.573 -0.377,1.078 -0.95,1.127 -0.241,0.021 -0.522,0.131 -0.813,0.319 -0.177,0.113 -0.373,0.167 -0.567,0.167 z"
           id="path250"
           inkscape:connector-curvature="0"
           style="fill:#594a42" /><path
           d="m 1142.816,-624.164 c -0.46,0 -0.881,-0.308 -1.006,-0.773 -0.227,-0.844 -0.742,-1.664 -1.168,-2.284 -0.325,-0.475 -0.204,-1.124 0.271,-1.45 0.475,-0.326 1.123,-0.205 1.449,0.271 0.519,0.757 1.154,1.773 1.461,2.924 0.149,0.556 -0.181,1.128 -0.737,1.277 -0.09,0.024 -0.18,0.035 -0.27,0.035 z m -3.628,-6.326 c -0.417,0 -0.81,-0.251 -0.971,-0.662 -0.378,-0.962 -0.569,-1.922 -0.569,-2.853 0,-0.156 0.01,-0.311 0.016,-0.467 0.041,-0.575 0.546,-1.009 1.113,-0.968 0.574,0.04 1.008,0.538 0.967,1.112 -0.01,0.107 -0.011,0.215 -0.011,0.322 0,0.669 0.144,1.372 0.425,2.09 0.211,0.536 -0.053,1.141 -0.589,1.352 -0.125,0.051 -0.255,0.074 -0.381,0.074 z"
           id="path252"
           inkscape:connector-curvature="0"
           style="fill:#594a42" /><path
           d="m 1140.391,-619.59 c -0.451,0 -0.867,-0.295 -1,-0.75 -0.162,-0.553 0.154,-1.132 0.707,-1.294 0.346,-0.102 0.652,-0.251 0.912,-0.446 0.461,-0.345 1.114,-0.251 1.459,0.21 0.346,0.461 0.252,1.115 -0.21,1.459 -0.459,0.343 -0.989,0.605 -1.575,0.777 -0.098,0.03 -0.197,0.044 -0.293,0.044 z"
           id="path254"
           inkscape:connector-curvature="0"
           style="fill:#594a42" /></g><path
         d="m 1149.804,-619.59 c -0.451,0 -0.866,-0.294 -1.001,-0.749 -0.162,-0.553 0.155,-1.132 0.707,-1.294 1.084,-0.318 1.732,-1.077 1.825,-2.138 0.134,-1.521 -0.913,-2.963 -1.927,-4.358 -0.221,-0.304 -0.437,-0.603 -0.637,-0.895 -1.783,-2.606 -2.188,-5.327 -1.137,-7.661 0.592,-1.313 2.113,-2.786 3.769,-2.927 0.572,-0.044 1.079,0.376 1.128,0.95 0.049,0.574 -0.377,1.078 -0.951,1.127 -0.76,0.065 -1.705,0.954 -2.043,1.706 -1,2.22 0.169,4.479 0.955,5.627 0.189,0.277 0.395,0.56 0.604,0.847 1.182,1.626 2.52,3.469 2.316,5.766 -0.168,1.917 -1.408,3.396 -3.314,3.956 -0.098,0.029 -0.198,0.043 -0.294,0.043 z"
         id="path258"
         inkscape:connector-curvature="0"
         style="fill:#594a42" /><g
         id="g266"><path
           d="m 1159.615,-637.049 c -0.342,0 -0.678,-0.168 -0.877,-0.477 -0.313,-0.483 -0.175,-1.129 0.309,-1.441 0.584,-0.378 1.18,-0.596 1.77,-0.646 0.57,-0.044 1.078,0.377 1.127,0.951 0.049,0.573 -0.376,1.078 -0.949,1.127 -0.242,0.021 -0.523,0.131 -0.814,0.319 -0.176,0.113 -0.372,0.167 -0.566,0.167 z"
           id="path260"
           inkscape:connector-curvature="0"
           style="fill:#594a42" /><path
           d="m 1161.644,-624.164 c -0.461,0 -0.882,-0.308 -1.007,-0.773 -0.226,-0.844 -0.742,-1.664 -1.168,-2.284 -0.325,-0.475 -0.203,-1.124 0.271,-1.45 0.475,-0.326 1.123,-0.205 1.449,0.271 0.519,0.757 1.154,1.773 1.462,2.924 0.148,0.556 -0.182,1.128 -0.737,1.277 -0.091,0.024 -0.182,0.035 -0.27,0.035 z m -3.628,-6.326 c -0.417,0 -0.811,-0.251 -0.971,-0.662 -0.379,-0.962 -0.57,-1.922 -0.57,-2.853 0,-0.156 0.01,-0.311 0.016,-0.467 0.041,-0.575 0.548,-1.009 1.113,-0.968 0.574,0.04 1.008,0.538 0.968,1.112 -0.01,0.107 -0.011,0.215 -0.011,0.322 0,0.669 0.143,1.372 0.424,2.09 0.211,0.536 -0.053,1.141 -0.588,1.352 -0.126,0.051 -0.255,0.074 -0.381,0.074 z"
           id="path262"
           inkscape:connector-curvature="0"
           style="fill:#594a42" /><path
           d="m 1159.217,-619.59 c -0.451,0 -0.867,-0.295 -1,-0.75 -0.162,-0.553 0.154,-1.132 0.707,-1.294 0.346,-0.102 0.652,-0.251 0.912,-0.446 0.461,-0.345 1.114,-0.251 1.46,0.21 0.345,0.461 0.251,1.115 -0.21,1.459 -0.46,0.343 -0.99,0.605 -1.575,0.777 -0.099,0.03 -0.197,0.044 -0.294,0.044 z"
           id="path264"
           inkscape:connector-curvature="0"
           style="fill:#594a42" /></g></g><g
       id="g288"><g
         id="g276"><path
           d="m 1142.52,-529.974 c -0.342,0 -0.678,-0.168 -0.877,-0.477 -0.313,-0.483 -0.174,-1.129 0.31,-1.441 0.585,-0.378 1.181,-0.596 1.77,-0.646 0.572,-0.048 1.079,0.376 1.127,0.95 0.05,0.574 -0.376,1.079 -0.95,1.127 -0.242,0.021 -0.523,0.13 -0.814,0.319 -0.176,0.115 -0.373,0.168 -0.566,0.168 z"
           id="path270"
           inkscape:connector-curvature="0"
           style="fill:#594a42" /><path
           d="m 1144.549,-517.088 c -0.461,0 -0.883,-0.307 -1.008,-0.773 -0.225,-0.844 -0.742,-1.664 -1.167,-2.284 -0.325,-0.475 -0.204,-1.124 0.271,-1.449 0.475,-0.326 1.123,-0.205 1.449,0.271 0.52,0.757 1.154,1.773 1.463,2.924 0.148,0.556 -0.182,1.127 -0.738,1.276 -0.09,0.023 -0.182,0.035 -0.27,0.035 z m -3.629,-6.326 c -0.416,0 -0.81,-0.251 -0.971,-0.662 -0.378,-0.962 -0.569,-1.922 -0.569,-2.853 0,-0.155 0,-0.311 0.016,-0.467 0.04,-0.574 0.548,-1.009 1.112,-0.968 0.574,0.04 1.008,0.538 0.969,1.113 -0.01,0.107 -0.012,0.214 -0.012,0.322 0,0.669 0.143,1.372 0.425,2.09 0.211,0.536 -0.054,1.141 -0.589,1.352 -0.125,0.049 -0.254,0.073 -0.381,0.073 z"
           id="path272"
           inkscape:connector-curvature="0"
           style="fill:#594a42" /><path
           d="m 1142.121,-512.515 c -0.451,0 -0.866,-0.295 -1,-0.749 -0.162,-0.553 0.154,-1.132 0.707,-1.294 0.346,-0.101 0.653,-0.251 0.913,-0.445 0.46,-0.346 1.114,-0.251 1.46,0.21 0.344,0.461 0.25,1.114 -0.211,1.459 -0.459,0.343 -0.988,0.604 -1.574,0.777 -0.099,0.028 -0.197,0.042 -0.295,0.042 z"
           id="path274"
           inkscape:connector-curvature="0"
           style="fill:#594a42" /></g><path
         d="m 1151.535,-512.515 c -0.451,0 -0.867,-0.294 -1,-0.749 -0.162,-0.552 0.153,-1.132 0.706,-1.294 1.083,-0.318 1.731,-1.077 1.825,-2.138 0.134,-1.521 -0.914,-2.963 -1.926,-4.357 -0.222,-0.304 -0.438,-0.603 -0.639,-0.896 -1.783,-2.606 -2.186,-5.327 -1.136,-7.661 0.592,-1.313 2.114,-2.786 3.769,-2.927 0.57,-0.048 1.078,0.376 1.127,0.95 0.049,0.573 -0.376,1.078 -0.949,1.127 -0.76,0.065 -1.706,0.954 -2.045,1.706 -1,2.22 0.17,4.479 0.955,5.627 0.19,0.277 0.396,0.56 0.604,0.848 1.181,1.626 2.519,3.468 2.316,5.766 -0.169,1.917 -1.407,3.396 -3.314,3.956 -0.098,0.028 -0.196,0.042 -0.293,0.042 z"
         id="path278"
         inkscape:connector-curvature="0"
         style="fill:#594a42" /><g
         id="g286"><path
           d="m 1161.346,-529.974 c -0.342,0 -0.678,-0.168 -0.877,-0.477 -0.313,-0.483 -0.174,-1.129 0.311,-1.441 0.584,-0.378 1.18,-0.596 1.77,-0.646 0.572,-0.048 1.078,0.376 1.127,0.95 0.049,0.574 -0.377,1.079 -0.951,1.127 -0.242,0.021 -0.523,0.13 -0.814,0.319 -0.176,0.115 -0.373,0.168 -0.566,0.168 z"
           id="path280"
           inkscape:connector-curvature="0"
           style="fill:#594a42" /><path
           d="m 1163.375,-517.088 c -0.461,0 -0.883,-0.307 -1.007,-0.773 -0.226,-0.844 -0.743,-1.664 -1.167,-2.284 -0.326,-0.475 -0.205,-1.124 0.27,-1.449 0.475,-0.326 1.124,-0.205 1.449,0.271 0.52,0.757 1.154,1.773 1.463,2.924 0.148,0.556 -0.182,1.127 -0.738,1.276 -0.09,0.023 -0.181,0.035 -0.27,0.035 z m -3.629,-6.326 c -0.416,0 -0.81,-0.251 -0.971,-0.662 -0.378,-0.962 -0.569,-1.922 -0.569,-2.853 0,-0.155 0.01,-0.311 0.017,-0.467 0.039,-0.574 0.541,-1.009 1.111,-0.968 0.575,0.04 1.008,0.538 0.969,1.113 -0.01,0.107 -0.012,0.214 -0.012,0.322 0,0.669 0.143,1.372 0.426,2.09 0.21,0.536 -0.054,1.141 -0.59,1.352 -0.125,0.049 -0.254,0.073 -0.381,0.073 z"
           id="path282"
           inkscape:connector-curvature="0"
           style="fill:#594a42" /><path
           d="m 1160.947,-512.515 c -0.45,0 -0.866,-0.295 -1,-0.749 -0.161,-0.553 0.154,-1.132 0.707,-1.294 0.347,-0.101 0.654,-0.251 0.914,-0.445 0.46,-0.346 1.113,-0.251 1.459,0.21 0.345,0.461 0.25,1.114 -0.211,1.459 -0.459,0.343 -0.988,0.604 -1.574,0.777 -0.098,0.028 -0.197,0.042 -0.295,0.042 z"
           id="path284"
           inkscape:connector-curvature="0"
           style="fill:#594a42" /></g></g><g
       id="g320"><g
         id="g298"><path
           d="m 1146.556,-363.047 c -1.092,-0.497 -2.034,-0.926 -2.837,-2.442 -0.83,-1.566 -0.804,-2.526 -0.773,-3.636 0.033,-1.166 0.07,-2.487 -0.955,-4.423 -0.205,-0.387 -0.684,-0.533 -1.07,-0.328 -0.386,0.203 -0.533,0.682 -0.328,1.068 0.83,1.569 0.803,2.527 0.771,3.638 -0.033,1.165 -0.069,2.486 0.956,4.422 1.055,1.991 2.397,2.604 3.581,3.142 1.092,0.496 2.035,0.926 2.838,2.44 0.83,1.569 0.805,2.529 0.773,3.641 -0.032,1.167 -0.068,2.486 0.957,4.425 0.205,0.387 0.684,0.533 1.07,0.328 0.386,-0.205 0.533,-0.683 0.329,-1.069 -0.831,-1.569 -0.805,-2.528 -0.774,-3.641 0.033,-1.165 0.068,-2.486 -0.957,-4.424 -1.055,-1.991 -2.397,-2.604 -3.581,-3.141 z"
           id="path290"
           inkscape:connector-curvature="0"
           style="fill:#bc7d48" /><g
           id="g296"><path
             d="m 1138.629,-376.678 c -6.515,3.449 -8.406,12.695 -4.215,20.609 4.191,7.915 12.9,11.548 19.416,8.097 6.516,-3.449 8.405,-12.694 4.215,-20.608 -4.191,-7.916 -12.9,-11.548 -19.416,-8.098 z m 14.243,26.898 c -5.489,2.907 -12.935,-0.355 -16.598,-7.273 -3.663,-6.917 -2.177,-14.908 3.313,-17.814 5.489,-2.907 12.934,0.355 16.598,7.271 3.663,6.916 2.176,14.909 -3.313,17.816 z"
             id="path292"
             inkscape:connector-curvature="0"
             style="fill:#594a42" /><path
             d="m 1143.719,-365.489 c -0.83,-1.566 -0.804,-2.526 -0.773,-3.636 0.033,-1.166 0.07,-2.487 -0.955,-4.423 -0.205,-0.387 -0.684,-0.533 -1.07,-0.328 -0.386,0.203 -0.533,0.682 -0.328,1.068 0.83,1.569 0.803,2.527 0.771,3.638 -0.033,1.165 -0.069,2.486 0.956,4.422 1.055,1.991 2.397,2.604 3.581,3.142 1.092,0.496 2.035,0.926 2.838,2.44 0.83,1.569 0.805,2.529 0.773,3.641 -0.032,1.167 -0.068,2.486 0.957,4.425 0.205,0.387 0.684,0.533 1.07,0.328 0.386,-0.205 0.533,-0.683 0.329,-1.069 -0.831,-1.569 -0.805,-2.528 -0.774,-3.641 0.033,-1.165 0.068,-2.486 -0.957,-4.424 -1.055,-1.991 -2.396,-2.604 -3.581,-3.141 -1.092,-0.497 -2.035,-0.926 -2.837,-2.442 z"
             id="path294"
             inkscape:connector-curvature="0"
             style="fill:#594a42" /></g></g><g
         id="g308"><path
           d="m 1177.658,-373.083 c -0.387,-1.136 -0.721,-2.115 -0.166,-3.739 0.572,-1.678 1.289,-2.315 2.119,-3.055 0.871,-0.773 1.858,-1.652 2.566,-3.727 0.141,-0.413 -0.08,-0.863 -0.493,-1.004 -0.414,-0.141 -0.864,0.078 -1.005,0.493 -0.573,1.68 -1.29,2.316 -2.12,3.056 -0.872,0.773 -1.858,1.651 -2.565,3.725 -0.729,2.134 -0.254,3.529 0.165,4.761 0.387,1.137 0.72,2.118 0.166,3.74 -0.573,1.681 -1.29,2.318 -2.121,3.058 -0.872,0.774 -1.858,1.654 -2.566,3.729 -0.142,0.414 0.079,0.863 0.493,1.005 0.413,0.142 0.863,-0.079 1.004,-0.493 0.574,-1.681 1.291,-2.318 2.122,-3.059 0.871,-0.774 1.858,-1.653 2.567,-3.729 0.727,-2.133 0.253,-3.529 -0.166,-4.761 z"
           id="path300"
           inkscape:connector-curvature="0"
           style="fill:#bc7d48" /><g
           id="g306"><path
             d="m 1182.117,-388.084 c -6.928,-2.363 -14.898,2.556 -17.771,10.972 -2.871,8.414 0.426,17.184 7.354,19.547 6.926,2.365 14.896,-2.558 17.77,-10.971 2.871,-8.415 -0.427,-17.183 -7.353,-19.548 z m -9.795,28.692 c -5.879,-2.006 -8.604,-9.664 -6.076,-17.072 2.529,-7.407 9.369,-11.801 15.247,-9.793 5.879,2.006 8.604,9.664 6.075,17.072 -2.529,7.408 -9.369,11.801 -15.246,9.793 z"
             id="path302"
             inkscape:connector-curvature="0"
             style="fill:#594a42" /><path
             d="m 1177.492,-376.822 c 0.572,-1.678 1.289,-2.315 2.119,-3.055 0.871,-0.773 1.858,-1.652 2.566,-3.727 0.141,-0.413 -0.08,-0.863 -0.493,-1.004 -0.414,-0.141 -0.864,0.078 -1.005,0.493 -0.573,1.68 -1.29,2.316 -2.12,3.056 -0.872,0.773 -1.858,1.651 -2.565,3.725 -0.729,2.134 -0.254,3.529 0.165,4.761 0.387,1.137 0.72,2.118 0.166,3.74 -0.573,1.681 -1.29,2.318 -2.121,3.058 -0.872,0.774 -1.858,1.654 -2.566,3.729 -0.142,0.414 0.079,0.863 0.493,1.005 0.413,0.142 0.863,-0.079 1.004,-0.493 0.574,-1.681 1.291,-2.318 2.122,-3.059 0.871,-0.774 1.858,-1.653 2.567,-3.729 0.727,-2.133 0.253,-3.528 -0.166,-4.761 -0.387,-1.136 -0.72,-2.115 -0.166,-3.739 z"
             id="path304"
             inkscape:connector-curvature="0"
             style="fill:#594a42" /></g></g><g
         id="g318"><path
           d="m 1154.822,-396.068 c -0.299,-0.877 -0.557,-1.636 -0.128,-2.89 0.442,-1.297 0.997,-1.789 1.638,-2.36 0.674,-0.599 1.437,-1.278 1.984,-2.881 0.108,-0.319 -0.063,-0.667 -0.382,-0.775 -0.319,-0.108 -0.667,0.061 -0.776,0.381 -0.443,1.298 -0.997,1.791 -1.639,2.361 -0.673,0.599 -1.436,1.277 -1.983,2.879 -0.562,1.648 -0.196,2.728 0.128,3.68 0.299,0.878 0.557,1.636 0.129,2.89 -0.443,1.299 -0.998,1.792 -1.64,2.363 -0.673,0.599 -1.437,1.278 -1.983,2.883 -0.109,0.318 0.062,0.666 0.381,0.775 0.32,0.109 0.668,-0.061 0.777,-0.382 0.443,-1.298 0.996,-1.79 1.639,-2.363 0.674,-0.599 1.436,-1.277 1.984,-2.881 0.563,-1.649 0.195,-2.728 -0.129,-3.68 z"
           id="path310"
           inkscape:connector-curvature="0"
           style="fill:#bc7d48" /><g
           id="g316"><path
             d="m 1158.381,-407.987 c -5.502,-1.878 -11.833,2.031 -14.113,8.713 -2.281,6.683 0.338,13.647 5.838,15.524 5.502,1.878 11.832,-2.031 14.113,-8.713 2.281,-6.683 -0.338,-13.646 -5.838,-15.524 z m -7.682,22.501 c -4.544,-1.551 -6.649,-7.47 -4.695,-13.195 1.954,-5.725 7.24,-9.119 11.783,-7.568 4.543,1.551 6.648,7.469 4.695,13.193 -1.955,5.725 -7.24,9.121 -11.783,7.57 z"
             id="path312"
             inkscape:connector-curvature="0"
             style="fill:#594a42" /><path
             d="m 1154.694,-398.958 c 0.442,-1.297 0.997,-1.789 1.638,-2.36 0.674,-0.599 1.437,-1.278 1.984,-2.881 0.108,-0.319 -0.063,-0.667 -0.382,-0.775 -0.319,-0.108 -0.667,0.061 -0.776,0.381 -0.443,1.298 -0.997,1.791 -1.639,2.361 -0.673,0.599 -1.436,1.277 -1.983,2.879 -0.562,1.648 -0.196,2.728 0.128,3.68 0.299,0.878 0.557,1.636 0.129,2.89 -0.443,1.299 -0.998,1.792 -1.64,2.363 -0.673,0.599 -1.437,1.278 -1.983,2.883 -0.109,0.318 0.062,0.666 0.381,0.775 0.32,0.109 0.668,-0.061 0.777,-0.382 0.443,-1.298 0.996,-1.79 1.639,-2.363 0.674,-0.599 1.436,-1.277 1.984,-2.881 0.563,-1.648 0.195,-2.728 -0.129,-3.68 -0.299,-0.877 -0.556,-1.636 -0.128,-2.89 z"
             id="path314"
             inkscape:connector-curvature="0"
             style="fill:#594a42" /></g></g></g><g
       id="g360"><path
         d="m 1487.357,-579.361 h 0.193 c 0,-0.008 0,-0.017 0,-0.025 z"
         id="path322"
         inkscape:connector-curvature="0"
         style="fill:#bc7d48" /><path
         d="m 1450.688,-613.592 h -0.461 l 0.465,0.058 c 0,-0.02 0,-0.039 0,-0.058 z"
         id="path324"
         inkscape:connector-curvature="0"
         style="fill:#bc7d48" /><path
         d="m 1491.664,-613.592 h -0.393 c 0,0.017 0,0.034 -0.01,0.051 z"
         id="path326"
         inkscape:connector-curvature="0"
         style="fill:#bc7d48" /><path
         d="m 1469.994,-584.703 c -7.022,0 -12.736,-5.713 -12.736,-12.735 0,-7.022 5.714,-12.736 12.736,-12.736 7.021,0 12.734,5.713 12.734,12.736 0,7.023 -5.712,12.735 -12.734,12.735 z m 0,-23.971 c -6.195,0 -11.236,5.041 -11.236,11.236 0,6.195 5.041,11.235 11.236,11.235 6.194,0 11.234,-5.04 11.234,-11.235 0,-6.195 -5.04,-11.236 -11.234,-11.236 z"
         id="path328"
         inkscape:connector-curvature="0"
         style="fill:#594637" /><polygon
         points="1486,-579.361 1485.979,-579.183 1487.357,-579.361 "
         id="polygon330"
         style="fill:#594637" /><path
         d="m 1493.021,-613.592 0.023,-0.178 -0.717,0.092 c 0,0.029 -0.01,0.057 -0.01,0.085 h 0.702 z"
         id="path332"
         inkscape:connector-curvature="0"
         style="fill:#594637" /><path
         d="m 1493.021,-613.592 0.023,-0.178 -0.717,0.092 c 0,0.029 -0.01,0.057 -0.01,0.085 h 0.702 z"
         id="path334"
         inkscape:connector-curvature="0"
         style="opacity:0.2" /><path
         d="m 1492.32,-613.592 c 0,-0.029 0,-0.057 0.01,-0.085 l -0.664,0.085 z"
         id="path336"
         inkscape:connector-curvature="0"
         style="fill:#594637" /><path
         d="m 1492.32,-613.592 c 0,-0.029 0,-0.057 0.01,-0.085 l -0.664,0.085 z"
         id="path338"
         inkscape:connector-curvature="0"
         style="opacity:0.2" /><path
         d="m 1449.631,-613.666 -0.785,-0.097 0.021,0.17 h 0.771 c 0,-0.024 0,-0.048 -0.01,-0.073 z"
         id="path340"
         inkscape:connector-curvature="0"
         style="fill:#594637" /><path
         d="m 1449.631,-613.666 -0.785,-0.097 0.021,0.17 h 0.771 c 0,-0.024 0,-0.048 -0.01,-0.073 z"
         id="path342"
         inkscape:connector-curvature="0"
         style="opacity:0.3;fill:#ffffff" /><polygon
         points="1452.033,-588.434 1453.154,-579.531 1453.213,-579.539 "
         id="polygon344"
         style="fill:#594637" /><polygon
         points="1452.033,-588.434 1453.154,-579.531 1453.213,-579.539 "
         id="polygon346"
         style="opacity:0.3;fill:#ffffff" /><path
         d="m 1450.227,-613.592 -0.596,-0.074 c 0,0.025 0,0.049 0.01,0.074 z"
         id="path348"
         inkscape:connector-curvature="0"
         style="fill:#594637" /><path
         d="m 1450.227,-613.592 -0.596,-0.074 c 0,0.025 0,0.049 0.01,0.074 z"
         id="path350"
         inkscape:connector-curvature="0"
         style="opacity:0.3;fill:#ffffff" /><polygon
         points="1455.244,-568.774 1455.244,-568.773 1455.246,-568.773 "
         id="polygon352"
         style="fill:#594637" /><path
         d="m 1493.545,-615.678 c 0.203,-2.476 0.354,-4.417 0.441,-5.59 h 1.334 v -4.31 -1.532 -4.313 h -3.836 l -1.305,-7.629 h -38.57 l -1.148,7.629 h -3.992 v 4.313 1.532 4.31 h 1.502 c 0.088,1.173 0.238,3.114 0.443,5.59 h -2.092 l 5.086,38.402 h 1.199 c 0.809,5.217 1.686,9.618 2.604,12.274 l 0.242,0.703 h 31.051 l 0.242,-0.703 c 0.918,-2.656 1.795,-7.057 2.605,-12.274 h 1.371 l 4.734,-38.402 z m -40.141,-21.288 h 35.018 l 0.896,5.238 h -36.701 z m 31.6,70.582 h -28.051 c -0.215,-0.7 -0.428,-1.5 -0.639,-2.389 h 2.389 18.383 v -1.39 H 1458.447 1456 c -0.439,-2.054 -0.867,-4.469 -1.279,-7.112 h 2.617 27.43 2.469 c -0.704,4.517 -1.456,8.364 -2.233,10.891 z m 3.875,-12.977 h -0.273 -1.055 -0.193 -1.358 -31.594 -1.055 -0.115 l -1.203,-9.073 -3.332,-25.159 h 0.166 1.359 0.461 40.584 0.393 1.357 0.076 z m -38.816,-41.907 h 39.143 2.689 c -0.092,1.197 -0.244,3.132 -0.449,5.59 h -2.738 -38.195 c -0.206,-2.457 -0.359,-4.393 -0.45,-5.59 z m 43.171,-2.315 v 0.231 h -44.682 v -0.231 -1.44 h 44.682 z m 0,-4.08 h -44.682 v -1.675 h 44.682 z"
         id="path354"
         inkscape:connector-curvature="0"
         style="fill:#594637" /><path
         d="m 1468.63,-590.35 c 1.371,-2.14 0.769,-4.892 0.233,-6.344 -0.534,-1.452 -0.572,-4.013 -0.305,-5.121 0.267,-1.109 0.305,-2.178 0.305,-2.178 0,0 -5.697,0.712 -5.197,6.821 0.573,7.013 4.964,6.822 4.964,6.822 z"
         id="path356"
         inkscape:connector-curvature="0"
         style="fill:#594637" /><path
         d="m 1471.799,-592.528 c -0.267,1.108 -0.305,2.179 -0.305,2.179 0,0 5.697,-0.712 5.197,-6.822 -0.573,-7.013 -4.964,-6.822 -4.964,-6.822 -1.37,2.14 -0.769,4.892 -0.233,6.344 0.535,1.452 0.573,4.012 0.305,5.121 z"
         id="path358"
         inkscape:connector-curvature="0"
         style="fill:#594637" /></g><g
       id="g450"><g
         id="g442"><path
           d="m 1170.368,-247.099 c -0.146,0.176 -0.299,0.343 -0.454,0.51 0.155,-0.167 0.309,-0.334 0.454,-0.51 z"
           id="path362"
           inkscape:connector-curvature="0"
           style="fill:#dad4cf" /><path
           d="m 1168.389,-245.229 c -1.187,0.874 -2.551,1.522 -4.032,1.88 1.482,-0.358 2.845,-1.003 4.032,-1.88 z"
           id="path364"
           inkscape:connector-curvature="0"
           style="fill:#dad4cf" /><path
           d="m 1150.774,-251.526 c -0.028,-0.114 -0.054,-0.229 -0.079,-0.345 0.026,0.115 0.051,0.23 0.079,0.345 z"
           id="path366"
           inkscape:connector-curvature="0"
           style="fill:#dad4cf" /><path
           d="m 1171.214,-248.279 c -0.211,0.335 -0.438,0.66 -0.683,0.97 0.244,-0.31 0.472,-0.633 0.683,-0.97 z"
           id="path368"
           inkscape:connector-curvature="0"
           style="fill:#dad4cf" /><path
           d="m 1172.066,-249.925 c -0.058,0.139 -0.114,0.277 -0.177,0.413 0.063,-0.135 0.12,-0.274 0.177,-0.413 z"
           id="path370"
           inkscape:connector-curvature="0"
           style="fill:#dad4cf" /><path
           d="m 1150.568,-252.563 c -0.016,-0.105 -0.034,-0.212 -0.047,-0.317 0.013,0.106 0.032,0.212 0.047,0.317 z"
           id="path372"
           inkscape:connector-curvature="0"
           style="fill:#dad4cf" /><path
           d="m 1171.647,-249.034 c -0.072,0.139 -0.141,0.281 -0.22,0.415 0.08,-0.134 0.148,-0.276 0.22,-0.415 z"
           id="path374"
           inkscape:connector-curvature="0"
           style="fill:#dad4cf" /><path
           d="m 1169.065,-245.771 c -0.191,0.166 -0.388,0.326 -0.59,0.479 0.203,-0.152 0.399,-0.312 0.59,-0.479 z"
           id="path376"
           inkscape:connector-curvature="0"
           style="fill:#dad4cf" /><path
           d="m 1153.688,-246.348 c -0.324,-0.326 -0.623,-0.676 -0.905,-1.04 0.281,0.366 0.581,0.713 0.905,1.04 z"
           id="path378"
           inkscape:connector-curvature="0"
           style="fill:#dad4cf" /><path
           d="m 1154.236,-245.834 c -0.182,-0.159 -0.359,-0.323 -0.531,-0.494 0.171,0.171 0.35,0.334 0.531,0.494 z"
           id="path380"
           inkscape:connector-curvature="0"
           style="fill:#dad4cf" /><path
           d="m 1151.569,-249.343 c -0.057,-0.117 -0.118,-0.233 -0.171,-0.354 0.053,0.121 0.115,0.237 0.171,0.354 z"
           id="path382"
           inkscape:connector-curvature="0"
           style="fill:#dad4cf" /><path
           d="m 1154.938,-245.262 c -0.2,-0.149 -0.395,-0.308 -0.585,-0.47 0.19,0.164 0.385,0.32 0.585,0.47 z"
           id="path384"
           inkscape:connector-curvature="0"
           style="fill:#dad4cf" /><path
           d="m 1152.063,-248.432 c -0.083,-0.139 -0.165,-0.276 -0.243,-0.419 0.078,0.143 0.16,0.281 0.243,0.419 z"
           id="path386"
           inkscape:connector-curvature="0"
           style="fill:#dad4cf" /><path
           d="m 1152.602,-247.619 c -0.105,-0.145 -0.203,-0.292 -0.303,-0.441 0.099,0.149 0.197,0.296 0.303,0.441 z"
           id="path388"
           inkscape:connector-curvature="0"
           style="fill:#dad4cf" /><path
           d="m 1169.735,-246.399 c -0.165,0.169 -0.336,0.331 -0.512,0.489 0.176,-0.159 0.347,-0.32 0.512,-0.489 z"
           id="path390"
           inkscape:connector-curvature="0"
           style="fill:#dad4cf" /><path
           d="m 1151.058,-250.562 c -0.032,-0.095 -0.06,-0.194 -0.091,-0.29 0.031,0.096 0.058,0.196 0.091,0.29 z"
           id="path392"
           inkscape:connector-curvature="0"
           style="fill:#dad4cf" /><path
           d="m 1172.851,-252.872 c -0.014,0.115 -0.036,0.227 -0.054,0.341 0.017,-0.115 0.04,-0.226 0.054,-0.341 z"
           id="path394"
           inkscape:connector-curvature="0"
           style="fill:#dad4cf" /><path
           d="m 1172.411,-250.867 c -0.043,0.138 -0.088,0.274 -0.137,0.41 0.049,-0.136 0.094,-0.272 0.137,-0.41 z"
           id="path396"
           inkscape:connector-curvature="0"
           style="fill:#dad4cf" /><path
           d="m 1172.675,-251.851 c -0.029,0.133 -0.063,0.263 -0.098,0.395 0.034,-0.132 0.069,-0.262 0.098,-0.395 z"
           id="path398"
           inkscape:connector-curvature="0"
           style="fill:#dad4cf" /><path
           d="m 1172.797,-252.531 c -0.035,0.229 -0.073,0.456 -0.122,0.681 0.049,-0.225 0.087,-0.452 0.122,-0.681 z"
           id="path400"
           inkscape:connector-curvature="0"
           style="fill:#ffffff" /><path
           d="m 1172.935,-253.923 c -0.011,0.355 -0.041,0.706 -0.084,1.051 0.043,-0.345 0.073,-0.695 0.084,-1.051 z"
           id="path402"
           inkscape:connector-curvature="0"
           style="fill:#ffffff" /><path
           d="m 1168.476,-245.291 c -0.029,0.02 -0.059,0.04 -0.087,0.063 0.028,-0.023 0.057,-0.043 0.087,-0.063 z"
           id="path404"
           inkscape:connector-curvature="0"
           style="fill:#ffffff" /><path
           d="m 1169.224,-245.91 c -0.053,0.046 -0.105,0.094 -0.158,0.14 0.052,-0.046 0.105,-0.094 0.158,-0.14 z"
           id="path406"
           inkscape:connector-curvature="0"
           style="fill:#ffffff" /><polygon
           points="1164.35,-243.348 1164.351,-243.348 1164.356,-243.349 "
           id="polygon408"
           style="fill:#ffffff" /><path
           d="m 1171.428,-248.619 c -0.067,0.117 -0.144,0.228 -0.214,0.34 0.07,-0.113 0.146,-0.223 0.214,-0.34 z"
           id="path410"
           inkscape:connector-curvature="0"
           style="fill:#ffffff" /><path
           d="m 1171.89,-249.512 c -0.075,0.163 -0.159,0.32 -0.242,0.478 0.082,-0.157 0.165,-0.315 0.242,-0.478 z"
           id="path412"
           inkscape:connector-curvature="0"
           style="fill:#ffffff" /><path
           d="m 1172.274,-250.457 c -0.064,0.18 -0.135,0.357 -0.208,0.532 0.074,-0.175 0.144,-0.352 0.208,-0.532 z"
           id="path414"
           inkscape:connector-curvature="0"
           style="fill:#ffffff" /><path
           d="m 1169.914,-246.589 c -0.06,0.063 -0.118,0.127 -0.179,0.189 0.061,-0.062 0.119,-0.126 0.179,-0.189 z"
           id="path416"
           inkscape:connector-curvature="0"
           style="fill:#ffffff" /><path
           d="m 1172.577,-251.456 c -0.05,0.198 -0.105,0.396 -0.166,0.589 0.062,-0.194 0.116,-0.391 0.166,-0.589 z"
           id="path418"
           inkscape:connector-curvature="0"
           style="fill:#ffffff" /><path
           d="m 1170.531,-247.31 c -0.056,0.07 -0.106,0.142 -0.163,0.211 0.057,-0.069 0.108,-0.14 0.163,-0.211 z"
           id="path420"
           inkscape:connector-curvature="0"
           style="fill:#ffffff" /><path
           d="m 1152.782,-247.388 c -0.06,-0.077 -0.122,-0.151 -0.181,-0.231 0.059,0.08 0.122,0.154 0.181,0.231 z"
           id="path422"
           inkscape:connector-curvature="0"
           style="fill:#e5dfda" /><path
           d="m 1150.695,-251.871 c -0.049,-0.229 -0.091,-0.459 -0.127,-0.691 0.036,0.232 0.078,0.462 0.127,0.691 z"
           id="path424"
           inkscape:connector-curvature="0"
           style="fill:#e5dfda" /><path
           d="m 1154.964,-245.242 c -0.01,-0.007 -0.017,-0.013 -0.026,-0.02 0.01,0.007 0.017,0.013 0.026,0.02 z"
           id="path426"
           inkscape:connector-curvature="0"
           style="fill:#e5dfda" /><path
           d="m 1150.967,-250.852 c -0.07,-0.223 -0.135,-0.447 -0.192,-0.675 0.057,0.228 0.121,0.453 0.192,0.675 z"
           id="path428"
           inkscape:connector-curvature="0"
           style="fill:#e5dfda" /><path
           d="m 1150.521,-252.88 c -0.042,-0.338 -0.074,-0.681 -0.086,-1.026 0.012,0.347 0.044,0.688 0.086,1.026 z"
           id="path430"
           inkscape:connector-curvature="0"
           style="fill:#e5dfda" /><path
           d="m 1151.398,-249.696 c -0.125,-0.282 -0.238,-0.57 -0.341,-0.865 0.103,0.294 0.216,0.582 0.341,0.865 z"
           id="path432"
           inkscape:connector-curvature="0"
           style="fill:#e5dfda" /><path
           d="m 1151.82,-248.851 c -0.088,-0.16 -0.17,-0.326 -0.251,-0.492 0.081,0.166 0.163,0.332 0.251,0.492 z"
           id="path434"
           inkscape:connector-curvature="0"
           style="fill:#e5dfda" /><path
           d="m 1153.705,-246.328 c -0.01,-0.007 -0.012,-0.014 -0.018,-0.02 0.01,0.006 0.012,0.013 0.018,0.02 z"
           id="path436"
           inkscape:connector-curvature="0"
           style="fill:#e5dfda" /><path
           d="m 1154.353,-245.731 c -0.038,-0.034 -0.077,-0.067 -0.116,-0.103 0.038,0.035 0.077,0.068 0.116,0.103 z"
           id="path438"
           inkscape:connector-curvature="0"
           style="fill:#e5dfda" /><path
           d="m 1152.299,-248.061 c -0.08,-0.122 -0.16,-0.246 -0.235,-0.371 0.076,0.125 0.155,0.249 0.235,0.371 z"
           id="path440"
           inkscape:connector-curvature="0"
           style="fill:#e5dfda" /></g><g
         id="g446"><path
           d="m 1160.771,-297.021 c -0.129,-0.022 -0.26,-0.048 -0.391,-0.065 l -0.026,0.355 c 0.138,-0.099 0.279,-0.195 0.417,-0.29 z"
           id="path444"
           inkscape:connector-curvature="0"
           style="fill:#ffffff" /></g><path
         d="m 1185.972,-281.104 c -1.942,-3.191 -5.266,-4.648 -9.112,-3.993 -0.047,0.008 -0.084,0.036 -0.129,0.05 l 0.28,-5.164 c 0.033,-0.66 -0.207,-1.311 -0.662,-1.789 -0.345,-0.361 -0.796,-0.604 -1.28,-0.701 0.354,-0.67 0.584,-1.454 0.632,-2.294 0.127,-2.209 -0.946,-4.159 -2.871,-5.215 -2.056,-1.127 -4.403,-1.29 -7.019,-0.507 0,-0.068 0.016,-0.136 0.017,-0.204 0.013,-1.071 -0.545,-1.967 -1.493,-2.396 -0.524,-0.239 -1.142,-0.006 -1.38,0.519 -0.237,0.525 0,1.143 0.52,1.38 0.133,0.061 0.272,0.151 0.27,0.473 -0.01,0.487 -0.33,0.921 -0.471,0.98 -0.678,0.286 -1.969,-0.048 -2.825,-0.271 l -0.158,-0.041 c -1.291,-0.332 -2.867,-0.661 -4.735,-0.587 -6.359,0.256 -7.694,3.292 -7.694,5.794 0,0.852 0.29,1.668 0.813,2.366 h -0.034 c -0.659,0.001 -1.296,0.276 -1.749,0.756 -0.453,0.48 -0.691,1.131 -0.656,1.793 l 2.107,36.345 c 0.191,5.476 3.603,10.043 8.388,11.94 0.028,0.05 0.042,0.106 0.08,0.153 1.058,1.296 1.618,2.867 1.62,4.538 0,2.064 -0.764,2.355 -2.814,3.135 -0.476,0.181 -0.986,0.376 -1.527,0.609 -2.314,1.007 -3.807,3.211 -3.803,5.613 v 0.119 c 0,0.579 0.473,1.049 1.051,1.047 l 20.812,-0.036 c 0.58,-0.002 1.049,-0.473 1.047,-1.051 v -0.12 c 0,-2.402 -1.504,-4.601 -3.822,-5.6 -0.541,-0.232 -1.053,-0.425 -1.529,-0.604 -2.054,-0.771 -2.822,-1.061 -2.826,-3.124 0,-1.673 0.553,-3.245 1.604,-4.545 0.039,-0.048 0.053,-0.105 0.082,-0.157 4.77,-1.916 8.158,-6.488 8.33,-11.941 l 0.529,-9.726 c 0.164,0.103 0.348,0.175 0.55,0.174 0.05,0 0.099,-0.004 0.148,-0.011 3.018,-0.432 7.057,-2.188 9.278,-5.139 2.546,-3.385 2.733,-8.789 0.431,-12.568 z m -35.372,-12.547 c -0.428,-0.406 -0.654,-0.897 -0.654,-1.418 0,-1.495 0.59,-3.506 5.691,-3.711 1.291,-0.053 2.488,0.101 4.133,0.523 l 0.154,0.04 c 0.184,0.048 0.379,0.097 0.58,0.146 -0.236,0.16 -0.473,0.32 -0.713,0.492 -0.467,0.335 -0.574,0.986 -0.238,1.455 0.336,0.467 0.986,0.575 1.455,0.238 4.419,-3.172 8.059,-4.013 10.818,-2.497 1.732,0.95 1.83,2.602 1.792,3.268 -0.069,1.204 -0.664,2.081 -1.188,2.294 -0.044,0.018 -0.073,0.052 -0.112,0.074 l -18.969,0.035 c -1.14,-0.028 -2.128,-0.351 -2.749,-0.939 z m 16.504,61.548 c 0.446,0.168 0.929,0.349 1.438,0.568 1.257,0.542 2.136,1.551 2.438,2.746 l -18.485,0.033 c 0.298,-1.196 1.173,-2.209 2.428,-2.756 0.508,-0.22 0.99,-0.403 1.436,-0.573 2.146,-0.814 4.174,-1.586 4.168,-5.099 0,-1.355 -0.308,-2.69 -0.875,-3.909 0.674,0.102 1.357,0.169 2.06,0.168 0.706,-10e-4 1.394,-0.072 2.069,-0.177 -0.563,1.221 -0.863,2.558 -0.861,3.914 0,3.514 2.034,4.279 4.184,5.085 z m 5.832,-21.82 c -0.192,6.103 -5.125,10.891 -11.229,10.901 -6.106,0.011 -11.056,-4.761 -11.271,-10.885 l -2.107,-36.366 c -0.01,-0.118 0.051,-0.198 0.085,-0.234 0.034,-0.038 0.111,-0.1 0.228,-0.1 l 4.73,-0.008 c 0.045,0 0.086,0.01 0.132,0.01 0.13,0 0.263,-0.005 0.396,-0.011 l 20.702,-0.037 c 0.117,0 0.193,0.062 0.229,0.098 0.035,0.037 0.092,0.117 0.087,0.232 z m 3.466,-25.116 c 0.121,0.065 0.249,0.115 0.39,0.13 0.018,0.002 0.033,0.007 0.05,0.008 0.068,0.004 0.139,0.001 0.209,-0.01 1.197,-0.174 2.024,0.351 2.51,0.814 0.897,0.858 1.348,2.226 1.206,3.655 -0.252,2.568 -1.899,4.336 -4.41,4.797 -0.018,0.004 -0.033,0.009 -0.051,0.011 -0.072,0.014 -0.138,0.035 -0.211,0.047 -0.077,0.011 -0.141,0.048 -0.21,0.075 z m 7.458,9.244 c -1.551,2.061 -4.693,3.8 -7.699,4.284 -0.066,0.011 -0.133,0.03 -0.199,0.039 -0.11,0.016 -0.208,0.061 -0.304,0.107 l 0.123,-2.258 c 0.143,0.071 0.295,0.122 0.462,0.121 0,0 0.01,0 0.012,0 0.045,-10e-4 0.09,-0.004 0.137,-0.01 3.629,-0.519 6.105,-3.095 6.463,-6.727 0.203,-2.065 -0.486,-4.075 -1.843,-5.374 -1.128,-1.081 -2.587,-1.568 -4.12,-1.388 -0.047,0.006 -0.092,0.006 -0.138,0.013 -0.092,0.013 -0.169,0.054 -0.25,0.088 l 0.12,-2.207 c 0.113,0.049 0.234,0.081 0.361,0.087 0.074,0.004 0.15,10e-4 0.227,-0.012 2.997,-0.511 5.475,0.561 6.969,3.015 1.88,3.088 1.742,7.483 -0.321,10.222 z"
         id="path448"
         inkscape:connector-curvature="0"
         style="fill:#594a42" /></g><path
       d="m 1265.377,-416.881 h -3.129 v -3.205 h -23.121 v 3.205 h -3.142 c -3.03,0 -5.497,2.874 -5.497,6.405 v 8.394 h 1.159 c 0.317,3.27 0.899,6.991 1.968,9.553 -0.631,6.071 -3.54,36.238 -0.758,51.617 l 0.155,0.857 h 35.419 l 0.154,-0.857 c 2.787,-15.396 -0.12,-45.505 -0.758,-51.617 1.063,-2.548 1.643,-6.275 1.963,-9.553 h 1.084 v -8.394 c 10e-4,-3.531 -2.466,-6.405 -5.497,-6.405 z m -24.164,-1.12 h 18.95 v 1.12 h -18.95 z m -8.639,7.525 c 0,-2.341 1.563,-4.319 3.411,-4.319 h 3.142 2.086 18.95 2.085 3.129 c 1.85,0 3.412,1.979 3.412,4.319 v 0.421 5.888 h -0.91 -34.313 -0.992 v -5.888 z m 33.149,17.849 c 10e-4,0.011 0.01,0.09 0.023,0.233 0.603,5.761 3.43,34.82 0.936,50.254 h -31.918 c -2.387,-14.766 0.105,-42.077 0.846,-49.39 h 11.656 v -2 h -11.796 c -0.905,-2.273 -1.429,-5.572 -1.725,-8.553 h 33.952 c -0.34,3.346 -0.926,6.808 -1.887,8.967 l -0.104,0.233 z"
       id="path452"
       inkscape:connector-curvature="0"
       style="fill:#594637" /><path
       d="m 1367.832,-371.002 c 1.371,-2.14 0.769,-4.892 0.233,-6.344 -0.534,-1.452 -0.573,-4.013 -0.306,-5.121 0.268,-1.109 0.306,-2.178 0.306,-2.178 0,0 -5.697,0.712 -5.197,6.821 0.573,7.012 4.964,6.822 4.964,6.822 z"
       id="path454"
       inkscape:connector-curvature="0"
       style="fill:#594637" /><path
       d="m 1371.167,-373.181 c -0.267,1.108 -0.305,2.179 -0.305,2.179 0,0 5.696,-0.712 5.196,-6.822 -0.572,-7.013 -4.963,-6.822 -4.963,-6.822 -1.371,2.14 -0.77,4.892 -0.233,6.344 0.534,1.453 0.574,4.013 0.305,5.121 z"
       id="path456"
       inkscape:connector-curvature="0"
       style="fill:#594637" /><path
       d="m 1154.34,-248.681 c -1.52,-2.28 -1.398,-4.661 -1.393,-4.761 l -1.162,-27.86 1.5,-0.063 1.16,27.935 c -10e-4,0.092 -0.088,2.069 1.143,3.916 z"
       id="path458"
       inkscape:connector-curvature="0"
       style="fill:#594637" /><rect
       height="1.5"
       transform="matrix(0.0416,0.9991,-0.9991,0.0416,819.5308,-1424.7035)"
       width="3.641"
       x="1150.5551"
       y="-285.931"
       id="rect460"
       style="fill:#594637" /></g><path
     style="fill:#bfb283;fill-opacity:1;stroke:#bfac83;stroke-width:1;stroke-linecap:butt;stroke-linejoin:miter;stroke-miterlimit:4;stroke-dasharray:0, 11;stroke-dashoffset:0;stroke-opacity:1;filter:url(#filter2363)"
     d="m 25.96934,35.090802 0.107311,13.091981 32.837265,-0.107311 V 35.412736 Z"
     id="path1723"
     inkscape:connector-curvature="0"
     transform="matrix(0.99579017,0,0,1.3090786,3.3980115,-7.5571309)" /><g
     id="g2145"
     transform="translate(114.60849,-2.3608491)"><g
       transform="translate(-0.10731132,0.21462264)"
       id="g2086"><g
         id="g572"
         style="fill:#373737;fill-opacity:1"
         transform="translate(-114.60849,3.3266506)"><path
           d="M 42.397,23.517 11.231,41.315 h 9.272 V 64.16 h 5.094 V 45.839 H 38.813 V 64.16 H 64.291 V 41.315 h 9.273 z m 8.792,31.587 h -8.655 v -9.058 h 8.655 z m 9.633,0 h -8.656 v -9.058 h 8.656 z"
           id="path464"
           inkscape:connector-curvature="0"
           style="fill:#373737;fill-opacity:1" /><polygon
           points="16.805,70.313 16.805,69.832 18.845,69.832 18.845,70.313 22.205,70.313 22.205,69.832 24.245,69.832 24.245,70.313 27.604,70.313 27.604,69.832 29.645,69.832 29.645,70.313 33.004,70.313 33.004,69.832 35.044,69.832 35.044,70.313 38.404,70.313 38.404,69.832 40.444,69.832 40.444,70.313 43.805,70.313 43.805,69.832 45.844,69.832 45.844,70.313 49.205,70.313 49.205,69.832 51.244,69.832 51.244,70.313 54.604,70.313 54.604,69.832 56.645,69.832 56.645,70.313 60.004,70.313 60.004,69.832 62.045,69.832 62.045,70.313 65.404,70.313 65.404,69.832 67.443,69.832 67.443,70.313 70.805,70.313 70.805,69.352 68.053,69.352 68.053,66.769 16.744,66.769 16.744,69.352 13.444,69.352 13.444,70.313 "
           id="polygon466"
           style="fill:#373737;fill-opacity:1" /><rect
           height="0.96100003"
           width="3.3599999"
           x="35.043999"
           y="18.099001"
           id="rect468"
           style="fill:#373737;fill-opacity:1" /><rect
           height="0.96100003"
           width="3.3599999"
           x="24.245001"
           y="18.099001"
           id="rect470"
           style="fill:#373737;fill-opacity:1" /><rect
           height="0.96100003"
           width="3.3610001"
           x="40.444"
           y="18.099001"
           id="rect472"
           style="fill:#373737;fill-opacity:1" /><rect
           height="0.96100003"
           width="3.3599999"
           x="2.645"
           y="18.099001"
           id="rect474"
           style="fill:#373737;fill-opacity:1" /><rect
           height="0.96100003"
           width="3.3599999"
           x="29.645"
           y="18.099001"
           id="rect476"
           style="fill:#373737;fill-opacity:1" /><rect
           height="0.96100003"
           width="3.3610001"
           x="67.443001"
           y="18.099001"
           id="rect478"
           style="fill:#373737;fill-opacity:1" /><rect
           height="0.96100003"
           width="3.359"
           x="83.644997"
           y="18.099001"
           id="rect480"
           style="fill:#373737;fill-opacity:1" /><rect
           height="0.96100003"
           width="3.3610001"
           x="45.844002"
           y="18.099001"
           id="rect482"
           style="fill:#373737;fill-opacity:1" /><rect
           height="0.96100003"
           width="3.359"
           x="62.044998"
           y="18.099001"
           id="rect484"
           style="fill:#373737;fill-opacity:1" /><rect
           height="0.96100003"
           width="3.359"
           x="56.645"
           y="18.099001"
           id="rect486"
           style="fill:#373737;fill-opacity:1" /><rect
           height="0.96100003"
           width="3.359"
           x="51.243999"
           y="18.099001"
           id="rect488"
           style="fill:#373737;fill-opacity:1" /><rect
           height="0.96100003"
           width="3.3599999"
           x="13.444"
           y="18.099001"
           id="rect490"
           style="fill:#373737;fill-opacity:1" /><rect
           height="0.96100003"
           width="3.3599999"
           x="2.645"
           y="69.351997"
           id="rect492"
           style="fill:#373737;fill-opacity:1" /><rect
           height="0.96100003"
           width="3.359"
           x="83.644997"
           y="69.351997"
           id="rect494"
           style="fill:#373737;fill-opacity:1" /><polygon
           points="11.711,73.396 11.711,70.036 11.404,70.036 11.404,69.352 8.044,69.352 8.044,70.313 10.751,70.313 10.751,73.396 "
           id="polygon496"
           style="fill:#373737;fill-opacity:1" /><rect
           height="3.3599999"
           width="0.95899999"
           x="80.832001"
           y="61.299"
           id="rect498"
           style="fill:#373737;fill-opacity:1" /><rect
           height="3.3610001"
           width="0.95899999"
           x="80.832001"
           y="55.897999"
           id="rect500"
           style="fill:#373737;fill-opacity:1" /><polygon
           points="81.791,69.764 81.791,66.698 80.832,66.698 80.832,69.352 78.244,69.352 78.244,70.313 81.604,70.313 81.604,69.764 "
           id="polygon502"
           style="fill:#373737;fill-opacity:1" /><rect
           height="3.3610001"
           width="0.95899999"
           x="80.832001"
           y="45.098999"
           id="rect504"
           style="fill:#373737;fill-opacity:1" /><rect
           height="3.3599999"
           width="0.95899999"
           x="80.832001"
           y="50.499001"
           id="rect506"
           style="fill:#373737;fill-opacity:1" /><rect
           height="3.3610001"
           width="0.95899999"
           x="80.832001"
           y="28.898001"
           id="rect508"
           style="fill:#373737;fill-opacity:1" /><rect
           height="3.3599999"
           width="0.95899999"
           x="80.832001"
           y="23.499001"
           id="rect510"
           style="fill:#373737;fill-opacity:1" /><polygon
           points="78.244,18.099 78.244,19.06 80.832,19.06 80.832,21.46 81.791,21.46 81.791,18.099 81.604,18.099 80.832,18.099 "
           id="polygon512"
           style="fill:#373737;fill-opacity:1" /><rect
           height="3.3599999"
           width="0.95899999"
           x="80.832001"
           y="34.299"
           id="rect514"
           style="fill:#373737;fill-opacity:1" /><polygon
           points="21.813,18.099 21.813,11.009 20.854,11.009 20.854,18.099 18.845,18.099 18.845,19.06 20.854,19.06 20.854,22.798 21.813,22.798 21.813,19.06 22.205,19.06 22.205,18.099 "
           id="polygon516"
           style="fill:#373737;fill-opacity:1" /><polygon
           points="77.094,42.003 80.832,42.003 80.832,43.06 81.791,43.06 81.791,42.003 90,42.003 90,41.042 81.791,41.042 81.791,39.698 80.832,39.698 80.832,41.042 77.094,41.042 "
           id="polygon518"
           style="fill:#373737;fill-opacity:1" /><rect
           height="3.3599999"
           width="0.95899999"
           x="72.435997"
           y="25.719"
           id="rect520"
           style="fill:#373737;fill-opacity:1" /><rect
           height="3.3610001"
           width="0.95899999"
           x="72.435997"
           y="63.519001"
           id="rect522"
           style="fill:#373737;fill-opacity:1" /><rect
           height="3.3599999"
           width="0.95899999"
           x="72.435997"
           y="52.719002"
           id="rect524"
           style="fill:#373737;fill-opacity:1" /><rect
           height="3.3599999"
           width="0.95899999"
           x="72.435997"
           y="41.918999"
           id="rect526"
           style="fill:#373737;fill-opacity:1" /><rect
           height="3.3610001"
           width="0.95899999"
           x="72.435997"
           y="47.318001"
           id="rect528"
           style="fill:#373737;fill-opacity:1" /><polygon
           points="76.205,19.06 76.205,18.099 73.395,18.099 73.395,14.919 72.436,14.919 72.436,18.279 72.844,18.279 72.844,19.06 "
           id="polygon530"
           style="fill:#373737;fill-opacity:1" /><rect
           height="3.3610001"
           width="0.95899999"
           x="72.435997"
           y="58.118"
           id="rect532"
           style="fill:#373737;fill-opacity:1" /><rect
           height="2.6459999"
           width="0.95899999"
           x="72.435997"
           y="74.318001"
           id="rect534"
           style="fill:#373737;fill-opacity:1" /><rect
           height="3.3610001"
           width="0.95899999"
           x="72.435997"
           y="20.318001"
           id="rect536"
           style="fill:#373737;fill-opacity:1" /><rect
           height="3.3610001"
           width="0.95899999"
           x="72.435997"
           y="36.519001"
           id="rect538"
           style="fill:#373737;fill-opacity:1" /><polygon
           points="76.205,70.313 76.205,69.352 73.395,69.352 73.395,68.919 72.436,68.919 72.436,72.279 73.395,72.279 73.395,70.313 "
           id="polygon540"
           style="fill:#373737;fill-opacity:1" /><rect
           height="3.3610001"
           width="0.95899999"
           x="72.435997"
           y="31.118"
           id="rect542"
           style="fill:#373737;fill-opacity:1" /><rect
           height="3.3610001"
           width="0.95899999"
           x="72.435997"
           y="9.5190001"
           id="rect544"
           style="fill:#373737;fill-opacity:1" /><rect
           height="3.3610001"
           width="0.95999998"
           x="10.751"
           y="32.235001"
           id="rect546"
           style="fill:#373737;fill-opacity:1" /><rect
           height="3.3610001"
           width="0.95999998"
           x="10.751"
           y="10.636"
           id="rect548"
           style="fill:#373737;fill-opacity:1" /><rect
           height="3.3610001"
           width="0.95999998"
           x="10.751"
           y="48.436001"
           id="rect550"
           style="fill:#373737;fill-opacity:1" /><rect
           height="3.3599999"
           width="0.95999998"
           x="10.751"
           y="26.836"
           id="rect552"
           style="fill:#373737;fill-opacity:1" /><rect
           height="3.3599999"
           width="0.95999998"
           x="10.751"
           y="53.835999"
           id="rect554"
           style="fill:#373737;fill-opacity:1" /><rect
           height="3.3610001"
           width="0.95999998"
           x="10.751"
           y="59.235001"
           id="rect556"
           style="fill:#373737;fill-opacity:1" /><rect
           height="2.6459999"
           width="0.95999998"
           x="10.751"
           y="75.435997"
           id="rect558"
           style="fill:#373737;fill-opacity:1" /><polygon
           points="8.044,18.099 8.044,19.06 10.751,19.06 10.751,19.396 11.711,19.396 11.711,16.036 10.751,16.036 10.751,18.099 "
           id="polygon560"
           style="fill:#373737;fill-opacity:1" /><rect
           height="3.3610001"
           width="0.95999998"
           x="10.751"
           y="64.636002"
           id="rect562"
           style="fill:#373737;fill-opacity:1" /><rect
           height="3.3610001"
           width="0.95999998"
           x="10.751"
           y="21.436001"
           id="rect564"
           style="fill:#373737;fill-opacity:1" /><rect
           height="3.3599999"
           width="0.95999998"
           x="10.751"
           y="43.035999"
           id="rect566"
           style="fill:#373737;fill-opacity:1" /><rect
           height="3.3610001"
           width="0.95999998"
           x="10.751"
           y="37.636002"
           id="rect568"
           style="fill:#373737;fill-opacity:1" /><polygon
           points="25.167,81.481 25.167,78.943 38.735,78.943 38.735,81.481 39.695,81.481 39.695,75.445 38.735,75.445 38.735,77.982 25.167,77.982 25.167,75.445 24.207,75.445 24.207,77.982 24.207,78.943 24.207,81.481 "
           id="polygon570"
           style="fill:#373737;fill-opacity:1" /></g></g><path
       inkscape:connector-curvature="0"
       id="path1451"
       d="m -60.738204,33.910377 v -5.6875 h 3.112029 l 0.107311,7.726415 z"
       style="fill:#373737;fill-opacity:1;stroke:#000000;stroke-width:1;stroke-linecap:butt;stroke-linejoin:miter;stroke-miterlimit:4;stroke-dasharray:0, 11;stroke-dashoffset:0;stroke-opacity:1" /></g></svg>